<svg xmlns="http://www.w3.org/2000/svg" viewBox="0 0 700 780" width="700" height="780" role="img" aria-labelledby="mt md">
  <title id="mt">The area HeatFix Mcr Limited covers</title>
  <desc id="md">A map of south Manchester, Trafford and Stockport with 64 towns marked, from Prestwich and Salford in the north down through Chorlton, Didsbury and the Heatons to Handforth and Bramhall in the south, and from Altrincham and Timperley in the west across to Romiley and Hazel Grove in the east.</desc>
  <style>
    .l1{font:500 26px Inter,system-ui,sans-serif;fill:#41536c}
    .l2{font:700 30px Montserrat,Inter,system-ui,sans-serif;fill:#0B2E63}
    .d1{fill:#3E93D0;opacity:.55}
    .d2{fill:#3E93D0}
    .d3{fill:#EF5B18;stroke:#fff;stroke-width:2.5}
    .cap{font:800 13px Montserrat,Inter,sans-serif;fill:#0B2E63;letter-spacing:.18em}
    .sub{font:500 15px Inter,system-ui,sans-serif;fill:#5f6e82}
    .lg{font:600 17px Inter,system-ui,sans-serif;fill:#2c3e57}
  </style>
  <defs>
    <linearGradient id="g" x1="0" y1="0" x2="1" y2="1">
      <stop offset="0" stop-color="#f4f8fd"/><stop offset="1" stop-color="#e3ecf7"/>
    </linearGradient>
    <radialGradient id="glow" cx="50%" cy="50%">
      <stop offset="0" stop-color="#EF5B18" stop-opacity=".13"/>
      <stop offset="1" stop-color="#EF5B18" stop-opacity="0"/>
    </radialGradient>
    <pattern id="grid" width="44" height="44" patternUnits="userSpaceOnUse">
      <path d="M44 0H0v44" fill="none" stroke="#0B2E63" stroke-opacity=".05" stroke-width="1"/>
    </pattern>
  </defs>

  <rect width="700" height="780" fill="url(#g)"/>
  <rect width="700" height="780" fill="url(#grid)"/>
  <ellipse cx="354" cy="392" rx="294" ry="406" fill="url(#glow)"/>

  <path d="M88.2,365.0C92.0,313.0 103.7,295.3 127.4,250.1C151.0,204.8 193.1,114.7 230.3,93.4C267.4,72.1 310.7,111.2 350.4,122.3C390.1,133.5 433.2,124.5 468.4,160.2C503.5,196.0 537.6,285.1 561.3,336.8C585.0,388.4 612.7,426.3 610.5,470.1C608.4,513.9 573.9,568.4 548.3,599.7C522.7,631.1 488.8,643.3 457.1,658.2C425.4,673.1 417.0,705.2 358.2,689.2C299.4,673.3 149.2,616.6 104.2,562.6C59.2,508.5 84.3,417.1 88.2,365.0Z" fill="#3E93D0" fill-opacity=".10"
        stroke="#EF5B18" stroke-width="2.5" stroke-dasharray="9 7" stroke-linejoin="round"/>

  <circle cx="312.3" cy="274.5" r="13.299999999999999" class="d3"/><circle cx="231.1" cy="255.2" r="9.5" class="d2"/><circle cx="156.2" cy="268.1" r="7.6" class="d2"/><circle cx="243.3" cy="124.8" r="7.6" class="d2"/><circle cx="350.9" cy="156.3" r="5.699999999999999" class="d1"/><circle cx="316.7" cy="176.4" r="5.699999999999999" class="d1"/><circle cx="316.7" cy="207.9" r="5.699999999999999" class="d1"/><circle cx="376.5" cy="193.6" r="5.699999999999999" class="d1"/><circle cx="402.1" cy="176.4" r="5.699999999999999" class="d1"/><circle cx="453.3" cy="190.7" r="5.699999999999999" class="d1"/><circle cx="422.6" cy="233.7" r="5.699999999999999" class="d1"/><circle cx="349.1" cy="225.1" r="5.699999999999999" class="d1"/><circle cx="367.9" cy="248.1" r="5.699999999999999" class="d1"/><circle cx="338.9" cy="265.3" r="5.699999999999999" class="d1"/><circle cx="274.0" cy="219.4" r="5.699999999999999" class="d1"/><circle cx="238.1" cy="256.7" r="5.699999999999999" class="d1"/><circle cx="429.4" cy="279.6" r="5.699999999999999" class="d1"/><circle cx="390.1" cy="279.6" r="5.699999999999999" class="d1"/><circle cx="424.3" cy="299.7" r="5.699999999999999" class="d1"/><circle cx="467.0" cy="271.0" r="5.699999999999999" class="d1"/><circle cx="492.6" cy="291.1" r="5.699999999999999" class="d1"/><circle cx="528.5" cy="345.6" r="7.6" class="d2"/><circle cx="434.5" cy="322.6" r="5.699999999999999" class="d1"/><circle cx="357.7" cy="305.4" r="5.699999999999999" class="d1"/><circle cx="297.9" cy="322.6" r="5.699999999999999" class="d1"/><circle cx="303.0" cy="351.3" r="5.699999999999999" class="d1"/><circle cx="345.7" cy="354.2" r="5.699999999999999" class="d1"/><circle cx="393.6" cy="348.4" r="5.699999999999999" class="d1"/><circle cx="243.3" cy="345.6" r="5.699999999999999" class="d1"/><circle cx="279.1" cy="371.4" r="5.699999999999999" class="d1"/><circle cx="198.9" cy="374.2" r="5.699999999999999" class="d1"/><circle cx="122.0" cy="368.5" r="7.6" class="d2"/><circle cx="250.1" cy="384.3" r="7.6" class="d2"/><circle cx="350.9" cy="385.7" r="5.699999999999999" class="d1"/><circle cx="397.0" cy="387.1" r="5.699999999999999" class="d1"/><circle cx="455.0" cy="391.4" r="5.699999999999999" class="d1"/><circle cx="330.4" cy="414.4" r="5.699999999999999" class="d1"/><circle cx="427.7" cy="423.0" r="5.699999999999999" class="d1"/><circle cx="205.7" cy="474.6" r="5.699999999999999" class="d1"/><circle cx="174.9" cy="437.3" r="9.5" class="d2"/><circle cx="332.1" cy="454.5" r="7.6" class="d2"/><circle cx="367.9" cy="457.4" r="5.699999999999999" class="d1"/><circle cx="422.6" cy="440.2" r="5.699999999999999" class="d1"/><circle cx="397.0" cy="474.6" r="5.699999999999999" class="d1"/><circle cx="444.8" cy="454.5" r="5.699999999999999" class="d1"/><circle cx="457.6" cy="475.7" r="13.299999999999999" class="d3"/><circle cx="530.2" cy="448.8" r="5.699999999999999" class="d1"/><circle cx="549.0" cy="454.5" r="5.699999999999999" class="d1"/><circle cx="578.0" cy="460.2" r="7.6" class="d2"/><circle cx="289.4" cy="488.9" r="5.699999999999999" class="d1"/><circle cx="499.4" cy="500.4" r="5.699999999999999" class="d1"/><circle cx="432.8" cy="497.5" r="5.699999999999999" class="d1"/><circle cx="455.0" cy="517.6" r="5.699999999999999" class="d1"/><circle cx="443.1" cy="534.8" r="5.699999999999999" class="d1"/><circle cx="362.8" cy="517.6" r="7.6" class="d2"/><circle cx="330.4" cy="526.2" r="5.699999999999999" class="d1"/><circle cx="275.7" cy="529.1" r="7.6" class="d2"/><circle cx="164.7" cy="517.6" r="7.6" class="d2"/><circle cx="132.2" cy="543.4" r="9.5" class="d2"/><circle cx="338.9" cy="574.9" r="5.699999999999999" class="d1"/><circle cx="402.1" cy="574.9" r="7.6" class="d2"/><circle cx="525.1" cy="574.9" r="7.6" class="d2"/><circle cx="444.8" cy="626.5" r="7.6" class="d2"/><circle cx="357.7" cy="655.2" r="9.5" class="d2"/>
  <g>
    <text x="286.3" y="279.5" text-anchor="end" class="l2">Manchester</text>
    <text x="515.6" y="495.7" text-anchor="start" class="l2">Stockport</text>
    <text x="231.1" y="241.2" text-anchor="middle" class="l2">Salford</text>
    <text x="152.9" y="442.3" text-anchor="end" class="l2">Sale</text>
    <text x="132.2" y="567.4" text-anchor="middle" class="l2">Altrincham</text>
    <text x="379.7" y="675.2" text-anchor="start" class="l2">Handforth</text>
  </g>

  
</svg>
