<svg xmlns="http://www.w3.org/2000/svg" viewBox="0 0 1100 560" width="1100" height="560" role="img" aria-labelledby="mt md">
  <title id="mt">The area HeatFix Mcr Limited covers</title>
  <desc id="md">A map of south Manchester, Trafford and Stockport with 64 towns marked, from Prestwich and Salford in the north down through Chorlton, Didsbury and the Heatons to Handforth and Bramhall in the south, and from Altrincham and Timperley in the west across to Romiley and Hazel Grove in the east.</desc>
  <style>
    .l1{font:500 15px Inter,system-ui,sans-serif;fill:#41536c}
    .l2{font:700 17px Montserrat,Inter,system-ui,sans-serif;fill:#0B2E63}
    .d1{fill:#3E93D0;opacity:.55}
    .d2{fill:#3E93D0}
    .d3{fill:#EF5B18;stroke:#fff;stroke-width:2.5}
    .cap{font:800 13px Montserrat,Inter,sans-serif;fill:#0B2E63;letter-spacing:.18em}
    .sub{font:500 15px Inter,system-ui,sans-serif;fill:#5f6e82}
    .lg{font:600 17px Inter,system-ui,sans-serif;fill:#2c3e57}
  </style>
  <defs>
    <linearGradient id="g" x1="0" y1="0" x2="1" y2="1">
      <stop offset="0" stop-color="#f4f8fd"/><stop offset="1" stop-color="#e3ecf7"/>
    </linearGradient>
    <radialGradient id="glow" cx="50%" cy="50%">
      <stop offset="0" stop-color="#EF5B18" stop-opacity=".13"/>
      <stop offset="1" stop-color="#EF5B18" stop-opacity="0"/>
    </radialGradient>
    <pattern id="grid" width="44" height="44" patternUnits="userSpaceOnUse">
      <path d="M44 0H0v44" fill="none" stroke="#0B2E63" stroke-opacity=".05" stroke-width="1"/>
    </pattern>
  </defs>

  <rect width="1100" height="560" fill="url(#g)"/>
  <rect width="1100" height="560" fill="url(#grid)"/>
  <ellipse cx="729" cy="282" rx="462" ry="291" fill="url(#glow)"/>

  <path d="M501.3,258.5C504.5,213.9 514.6,198.6 534.9,159.9C555.3,121.3 591.8,44.8 623.7,26.6C655.6,8.3 692.3,41.0 726.3,50.4C760.3,59.8 797.2,52.1 827.5,82.7C857.9,113.3 887.9,189.7 908.2,234.0C928.5,278.4 951.5,311.1 949.4,348.7C947.3,386.3 917.7,432.8 895.8,459.6C873.8,486.4 844.8,497.0 817.6,509.7C790.5,522.4 783.3,549.7 732.9,536.0C682.6,522.3 554.2,473.8 515.6,427.6C477.0,381.3 498.1,303.1 501.3,258.5Z" fill="#3E93D0" fill-opacity=".10"
        stroke="#EF5B18" stroke-width="2.5" stroke-dasharray="9 7" stroke-linejoin="round"/>

  <circle cx="694.4" cy="183.3" r="7" class="d3"/><circle cx="626.5" cy="167.2" r="5" class="d2"/><circle cx="563.7" cy="178.0" r="4" class="d2"/><circle cx="636.7" cy="58.0" r="4" class="d2"/><circle cx="726.7" cy="84.4" r="3" class="d1"/><circle cx="698.1" cy="101.2" r="3" class="d1"/><circle cx="698.1" cy="127.6" r="3" class="d1"/><circle cx="748.2" cy="115.6" r="3" class="d1"/><circle cx="769.6" cy="101.2" r="3" class="d1"/><circle cx="812.5" cy="113.2" r="3" class="d1"/><circle cx="786.8" cy="149.2" r="3" class="d1"/><circle cx="725.3" cy="142.0" r="3" class="d1"/><circle cx="741.0" cy="161.2" r="3" class="d1"/><circle cx="716.7" cy="175.6" r="3" class="d1"/><circle cx="662.4" cy="137.2" r="3" class="d1"/><circle cx="632.4" cy="168.4" r="3" class="d1"/><circle cx="792.5" cy="187.6" r="3" class="d1"/><circle cx="759.6" cy="187.6" r="3" class="d1"/><circle cx="788.2" cy="204.4" r="3" class="d1"/><circle cx="823.9" cy="180.4" r="3" class="d1"/><circle cx="845.4" cy="197.2" r="3" class="d1"/><circle cx="875.4" cy="242.8" r="4" class="d2"/><circle cx="796.8" cy="223.6" r="3" class="d1"/><circle cx="732.4" cy="209.2" r="3" class="d1"/><circle cx="682.4" cy="223.6" r="3" class="d1"/><circle cx="686.7" cy="247.6" r="3" class="d1"/><circle cx="722.4" cy="250.0" r="3" class="d1"/><circle cx="762.5" cy="245.2" r="3" class="d1"/><circle cx="636.7" cy="242.8" r="3" class="d1"/><circle cx="666.7" cy="264.4" r="3" class="d1"/><circle cx="599.5" cy="266.8" r="3" class="d1"/><circle cx="535.1" cy="262.0" r="4" class="d2"/><circle cx="642.4" cy="275.2" r="4" class="d2"/><circle cx="726.7" cy="276.4" r="3" class="d1"/><circle cx="765.3" cy="277.6" r="3" class="d1"/><circle cx="813.9" cy="281.2" r="3" class="d1"/><circle cx="709.6" cy="300.4" r="3" class="d1"/><circle cx="791.0" cy="307.6" r="3" class="d1"/><circle cx="605.2" cy="350.8" r="3" class="d1"/><circle cx="579.5" cy="319.6" r="5" class="d2"/><circle cx="711.0" cy="334.0" r="4" class="d2"/><circle cx="741.0" cy="336.4" r="3" class="d1"/><circle cx="786.8" cy="322.0" r="3" class="d1"/><circle cx="765.3" cy="350.8" r="3" class="d1"/><circle cx="805.3" cy="334.0" r="3" class="d1"/><circle cx="816.1" cy="351.8" r="7" class="d3"/><circle cx="876.8" cy="329.2" r="3" class="d1"/><circle cx="892.5" cy="334.0" r="3" class="d1"/><circle cx="916.9" cy="338.8" r="4" class="d2"/><circle cx="675.2" cy="362.8" r="3" class="d1"/><circle cx="851.1" cy="372.4" r="3" class="d1"/><circle cx="795.3" cy="370.0" r="3" class="d1"/><circle cx="813.9" cy="386.8" r="3" class="d1"/><circle cx="803.9" cy="401.2" r="3" class="d1"/><circle cx="736.7" cy="386.8" r="4" class="d2"/><circle cx="709.6" cy="394.0" r="3" class="d1"/><circle cx="663.8" cy="396.4" r="4" class="d2"/><circle cx="570.9" cy="386.8" r="4" class="d2"/><circle cx="543.7" cy="408.4" r="5" class="d2"/><circle cx="716.7" cy="434.8" r="3" class="d1"/><circle cx="769.6" cy="434.8" r="4" class="d2"/><circle cx="872.5" cy="434.8" r="4" class="d2"/><circle cx="805.3" cy="478.0" r="4" class="d2"/><circle cx="732.4" cy="502.0" r="5" class="d2"/>
  <g>
    <text x="681.4" y="203.3" text-anchor="end" class="l2">Manchester</text>
    <text x="861.1" y="371.8" text-anchor="start" class="l2">Stockport</text>
    <text x="615.5" y="155.2" text-anchor="end" class="l2">Salford</text>
    <text x="568.5" y="324.6" text-anchor="end" class="l2">Sale</text>
    <text x="532.7" y="413.4" text-anchor="end" class="l2">Altrincham</text>
    <text x="743.4" y="507.0" text-anchor="start" class="l2">Handforth</text>
    <text x="552.7" y="183.0" text-anchor="end" class="l1">Eccles</text>
    <text x="625.7" y="63.0" text-anchor="end" class="l1">Prestwich</text>
    <text x="886.4" y="247.8" text-anchor="start" class="l1">Denton</text>
    <text x="524.1" y="267.0" text-anchor="end" class="l1">Urmston</text>
    <text x="631.4" y="295.2" text-anchor="end" class="l1">Chorlton</text>
    <text x="700.0" y="339.0" text-anchor="end" class="l1">Didsbury</text>
    <text x="927.9" y="343.8" text-anchor="start" class="l1">Romiley</text>
    <text x="736.7" y="372.8" text-anchor="middle" class="l1">Cheadle</text>
    <text x="652.8" y="416.4" text-anchor="end" class="l1">Wythenshawe</text>
    <text x="559.9" y="391.8" text-anchor="end" class="l1">Timperley</text>
    <text x="780.6" y="422.8" text-anchor="start" class="l1">Cheadle Hulme</text>
    <text x="883.5" y="454.8" text-anchor="start" class="l1">Hazel Grove</text>
    <text x="816.3" y="483.0" text-anchor="start" class="l1">Bramhall</text>
  </g>

  <g>
    <!-- A legend, not a caption. The section heading directly above the map
         already says "Manchester, Stockport and the areas we cover"; repeating
         it inside the picture reads as a mistake and wastes the panel. This
         says what the marks mean, which nothing else on the page does. -->
    <text x="52" y="188" class="cap">THE PATCH</text>
    <circle cx="61" cy="234" r="7" class="d3"/>
    <text x="82" y="240" class="lg">Manchester &amp; Stockport</text>
    <circle cx="61" cy="278" r="5" class="d2"/>
    <text x="82" y="284" class="lg">Every area we cover</text>
    <path d="M52 320h20" stroke="#EF5B18" stroke-width="2.5" stroke-dasharray="9 7"/>
    <text x="82" y="326" class="lg">How far we come</text>
    <rect x="52" y="366" width="54" height="4" rx="2" fill="#EF5B18"/>
    <text x="52" y="410" class="sub">Every one a short drive, which</text>
    <text x="52" y="432" class="sub">is what makes same-day</text>
    <text x="52" y="454" class="sub">call-outs possible.</text>
  </g>
</svg>
