<svg xmlns="http://www.w3.org/2000/svg" viewBox="0 0 1200 900" width="1200" height="900" role="img"><defs><radialGradient id="gx01" cx="34%" cy="30%" r="78%"><stop offset="0%" stop-color="#eaccbf"/><stop offset="52%" stop-color="#d9a38c"/><stop offset="100%" stop-color="#a97f6d"/></radialGradient><radialGradient id="gx02" cx="34%" cy="30%" r="78%"><stop offset="0%" stop-color="#dcbe9d"/><stop offset="52%" stop-color="#c08a4e"/><stop offset="100%" stop-color="#956b3c"/></radialGradient><radialGradient id="gx03" cx="34%" cy="30%" r="78%"><stop offset="0%" stop-color="#efd6d2"/><stop offset="52%" stop-color="#e2b6ae"/><stop offset="100%" stop-color="#b08d87"/></radialGradient><radialGradient id="gx04" cx="34%" cy="30%" r="78%"><stop offset="0%" stop-color="#f8efeb"/><stop offset="52%" stop-color="#f3e2dc"/><stop offset="100%" stop-color="#bdb0ab"/></radialGradient><radialGradient id="gx05" cx="34%" cy="30%" r="78%"><stop offset="0%" stop-color="#eaccbf"/><stop offset="52%" stop-color="#d9a38c"/><stop offset="100%" stop-color="#a97f6d"/></radialGradient><radialGradient id="gx06" cx="34%" cy="30%" r="78%"><stop offset="0%" stop-color="#e1b5b8"/><stop offset="52%" stop-color="#c9797f"/><stop offset="100%" stop-color="#9c5e63"/></radialGradient><radialGradient id="gx07" cx="34%" cy="30%" r="78%"><stop offset="0%" stop-color="#f2dad2"/><stop offset="52%" stop-color="#e8bdae"/><stop offset="100%" stop-color="#b49387"/></radialGradient><radialGradient id="gx08" cx="34%" cy="30%" r="78%"><stop offset="0%" stop-color="#efd6d2"/><stop offset="52%" stop-color="#e2b6ae"/><stop offset="100%" stop-color="#b08d87"/></radialGradient><radialGradient id="gx09" cx="34%" cy="30%" r="78%"><stop offset="0%" stop-color="#f2dad2"/><stop offset="52%" stop-color="#e8bdae"/><stop offset="100%" stop-color="#b49387"/></radialGradient><radialGradient id="gx010" cx="34%" cy="30%" r="78%"><stop offset="0%" stop-color="#faf6f2"/><stop offset="52%" stop-color="#f7efe9"/><stop offset="100%" stop-color="#c0bab5"/></radialGradient><radialGradient id="gx011" cx="34%" cy="30%" r="78%"><stop offset="0%" stop-color="#f8efeb"/><stop offset="52%" stop-color="#f3e2dc"/><stop offset="100%" stop-color="#bdb0ab"/></radialGradient><radialGradient id="gx012" cx="34%" cy="30%" r="78%"><stop offset="0%" stop-color="#efd6d2"/><stop offset="52%" stop-color="#e2b6ae"/><stop offset="100%" stop-color="#b08d87"/></radialGradient><radialGradient id="gx013" cx="34%" cy="30%" r="78%"><stop offset="0%" stop-color="#faf6f2"/><stop offset="52%" stop-color="#f7efe9"/><stop offset="100%" stop-color="#c0bab5"/></radialGradient><radialGradient id="gx014" cx="34%" cy="30%" r="78%"><stop offset="0%" stop-color="#f6e9e7"/><stop offset="52%" stop-color="#f0d8d4"/><stop offset="100%" stop-color="#bba8a5"/></radialGradient><radialGradient id="gx015" cx="34%" cy="30%" r="78%"><stop offset="0%" stop-color="#dcbe9d"/><stop offset="52%" stop-color="#c08a4e"/><stop offset="100%" stop-color="#956b3c"/></radialGradient><radialGradient id="gx016" cx="34%" cy="30%" r="78%"><stop offset="0%" stop-color="#f2dad2"/><stop offset="52%" stop-color="#e8bdae"/><stop offset="100%" stop-color="#b49387"/></radialGradient><radialGradient id="gx017" cx="34%" cy="30%" r="78%"><stop offset="0%" stop-color="#eaccbf"/><stop offset="52%" stop-color="#d9a38c"/><stop offset="100%" stop-color="#a97f6d"/></radialGradient><radialGradient id="gx018" cx="34%" cy="30%" r="78%"><stop offset="0%" stop-color="#f8efeb"/><stop offset="52%" stop-color="#f3e2dc"/><stop offset="100%" stop-color="#bdb0ab"/></radialGradient><radialGradient id="gx019" cx="34%" cy="30%" r="78%"><stop offset="0%" stop-color="#f2dad2"/><stop offset="52%" stop-color="#e8bdae"/><stop offset="100%" stop-color="#b49387"/></radialGradient><radialGradient id="gx020" cx="34%" cy="30%" r="78%"><stop offset="0%" stop-color="#f6e9e7"/><stop offset="52%" stop-color="#f0d8d4"/><stop offset="100%" stop-color="#bba8a5"/></radialGradient><radialGradient id="gx021" cx="34%" cy="30%" r="78%"><stop offset="0%" stop-color="#efd6d2"/><stop offset="52%" stop-color="#e2b6ae"/><stop offset="100%" stop-color="#b08d87"/></radialGradient><radialGradient id="gx022" cx="34%" cy="30%" r="78%"><stop offset="0%" stop-color="#e1b5b8"/><stop offset="52%" stop-color="#c9797f"/><stop offset="100%" stop-color="#9c5e63"/></radialGradient><radialGradient id="gx023" cx="34%" cy="30%" r="78%"><stop offset="0%" stop-color="#dcbe9d"/><stop offset="52%" stop-color="#c08a4e"/><stop offset="100%" stop-color="#956b3c"/></radialGradient><radialGradient id="gx024" cx="34%" cy="30%" r="78%"><stop offset="0%" stop-color="#f8efeb"/><stop offset="52%" stop-color="#f3e2dc"/><stop offset="100%" stop-color="#bdb0ab"/></radialGradient><radialGradient id="gx025" cx="34%" cy="30%" r="78%"><stop offset="0%" stop-color="#dcbe9d"/><stop offset="52%" stop-color="#c08a4e"/><stop offset="100%" stop-color="#956b3c"/></radialGradient><radialGradient id="gx026" cx="34%" cy="30%" r="78%"><stop offset="0%" stop-color="#eaccbf"/><stop offset="52%" stop-color="#d9a38c"/><stop offset="100%" stop-color="#a97f6d"/></radialGradient><radialGradient id="gx027" cx="34%" cy="30%" r="78%"><stop offset="0%" stop-color="#dcbe9d"/><stop offset="52%" stop-color="#c08a4e"/><stop offset="100%" stop-color="#956b3c"/></radialGradient><radialGradient id="gx028" cx="34%" cy="30%" r="78%"><stop offset="0%" stop-color="#f2dad2"/><stop offset="52%" stop-color="#e8bdae"/><stop offset="100%" stop-color="#b49387"/></radialGradient><radialGradient id="gx029" cx="34%" cy="30%" r="78%"><stop offset="0%" stop-color="#eaccbf"/><stop offset="52%" stop-color="#d9a38c"/><stop offset="100%" stop-color="#a97f6d"/></radialGradient><radialGradient id="gx11" cx="34%" cy="30%" r="78%"><stop offset="0%" stop-color="#efd6d2"/><stop offset="52%" stop-color="#e2b6ae"/><stop offset="100%" stop-color="#b08d87"/></radialGradient><radialGradient id="gx12" cx="34%" cy="30%" r="78%"><stop offset="0%" stop-color="#f2dad2"/><stop offset="52%" stop-color="#e8bdae"/><stop offset="100%" stop-color="#b49387"/></radialGradient><radialGradient id="gx13" cx="34%" cy="30%" r="78%"><stop offset="0%" stop-color="#f6e9e7"/><stop offset="52%" stop-color="#f0d8d4"/><stop offset="100%" stop-color="#bba8a5"/></radialGradient><radialGradient id="gx14" cx="34%" cy="30%" r="78%"><stop offset="0%" stop-color="#eaccbf"/><stop offset="52%" stop-color="#d9a38c"/><stop offset="100%" stop-color="#a97f6d"/></radialGradient><radialGradient id="gx15" cx="34%" cy="30%" r="78%"><stop offset="0%" stop-color="#f8efeb"/><stop offset="52%" stop-color="#f3e2dc"/><stop offset="100%" stop-color="#bdb0ab"/></radialGradient><radialGradient id="gx16" cx="34%" cy="30%" r="78%"><stop offset="0%" stop-color="#f2dad2"/><stop offset="52%" stop-color="#e8bdae"/><stop offset="100%" stop-color="#b49387"/></radialGradient><radialGradient id="gx17" cx="34%" cy="30%" r="78%"><stop offset="0%" stop-color="#f8efeb"/><stop offset="52%" stop-color="#f3e2dc"/><stop offset="100%" stop-color="#bdb0ab"/></radialGradient><radialGradient id="gx18" cx="34%" cy="30%" r="78%"><stop offset="0%" stop-color="#eaccbf"/><stop offset="52%" stop-color="#d9a38c"/><stop offset="100%" stop-color="#a97f6d"/></radialGradient><radialGradient id="gx19" cx="34%" cy="30%" r="78%"><stop offset="0%" stop-color="#dcbe9d"/><stop offset="52%" stop-color="#c08a4e"/><stop offset="100%" stop-color="#956b3c"/></radialGradient><radialGradient id="gx110" cx="34%" cy="30%" r="78%"><stop offset="0%" stop-color="#faf6f2"/><stop offset="52%" stop-color="#f7efe9"/><stop offset="100%" stop-color="#c0bab5"/></radialGradient><radialGradient id="gx111" cx="34%" cy="30%" r="78%"><stop offset="0%" stop-color="#e1b5b8"/><stop offset="52%" stop-color="#c9797f"/><stop offset="100%" stop-color="#9c5e63"/></radialGradient><radialGradient id="gx112" cx="34%" cy="30%" r="78%"><stop offset="0%" stop-color="#eaccbf"/><stop offset="52%" stop-color="#d9a38c"/><stop offset="100%" stop-color="#a97f6d"/></radialGradient><radialGradient id="gx113" cx="34%" cy="30%" r="78%"><stop offset="0%" stop-color="#f2dad2"/><stop offset="52%" stop-color="#e8bdae"/><stop offset="100%" stop-color="#b49387"/></radialGradient><radialGradient id="gx114" cx="34%" cy="30%" r="78%"><stop offset="0%" stop-color="#f2dad2"/><stop offset="52%" stop-color="#e8bdae"/><stop offset="100%" stop-color="#b49387"/></radialGradient><radialGradient id="gx115" cx="34%" cy="30%" r="78%"><stop offset="0%" stop-color="#f2dad2"/><stop offset="52%" stop-color="#e8bdae"/><stop offset="100%" stop-color="#b49387"/></radialGradient><radialGradient id="gx116" cx="34%" cy="30%" r="78%"><stop offset="0%" stop-color="#efd6d2"/><stop offset="52%" stop-color="#e2b6ae"/><stop offset="100%" stop-color="#b08d87"/></radialGradient><radialGradient id="gx117" cx="34%" cy="30%" r="78%"><stop offset="0%" stop-color="#efd6d2"/><stop offset="52%" stop-color="#e2b6ae"/><stop offset="100%" stop-color="#b08d87"/></radialGradient><radialGradient id="gx118" cx="34%" cy="30%" r="78%"><stop offset="0%" stop-color="#e1b5b8"/><stop offset="52%" stop-color="#c9797f"/><stop offset="100%" stop-color="#9c5e63"/></radialGradient><radialGradient id="gx119" cx="34%" cy="30%" r="78%"><stop offset="0%" stop-color="#e1b5b8"/><stop offset="52%" stop-color="#c9797f"/><stop offset="100%" stop-color="#9c5e63"/></radialGradient><radialGradient id="gx120" cx="34%" cy="30%" r="78%"><stop offset="0%" stop-color="#f8efeb"/><stop offset="52%" stop-color="#f3e2dc"/><stop offset="100%" stop-color="#bdb0ab"/></radialGradient><radialGradient id="gx121" cx="34%" cy="30%" r="78%"><stop offset="0%" stop-color="#faf6f2"/><stop offset="52%" stop-color="#f7efe9"/><stop offset="100%" stop-color="#c0bab5"/></radialGradient><radialGradient id="gx122" cx="34%" cy="30%" r="78%"><stop offset="0%" stop-color="#efd6d2"/><stop offset="52%" stop-color="#e2b6ae"/><stop offset="100%" stop-color="#b08d87"/></radialGradient><radialGradient id="gx123" cx="34%" cy="30%" r="78%"><stop offset="0%" stop-color="#dcbe9d"/><stop offset="52%" stop-color="#c08a4e"/><stop offset="100%" stop-color="#956b3c"/></radialGradient><radialGradient id="gx124" cx="34%" cy="30%" r="78%"><stop offset="0%" stop-color="#eaccbf"/><stop offset="52%" stop-color="#d9a38c"/><stop offset="100%" stop-color="#a97f6d"/></radialGradient><radialGradient id="gx125" cx="34%" cy="30%" r="78%"><stop offset="0%" stop-color="#f6e9e7"/><stop offset="52%" stop-color="#f0d8d4"/><stop offset="100%" stop-color="#bba8a5"/></radialGradient><radialGradient id="gx126" cx="34%" cy="30%" r="78%"><stop offset="0%" stop-color="#f6e9e7"/><stop offset="52%" stop-color="#f0d8d4"/><stop offset="100%" stop-color="#bba8a5"/></radialGradient><radialGradient id="gx127" cx="34%" cy="30%" r="78%"><stop offset="0%" stop-color="#eaccbf"/><stop offset="52%" stop-color="#d9a38c"/><stop offset="100%" stop-color="#a97f6d"/></radialGradient></defs><style>@media (prefers-reduced-motion:no-preference){.fl{animation:fl 7s ease-in-out infinite}.fl2{animation:fl 9s ease-in-out infinite reverse}.tw{animation:tw 4.5s ease-in-out infinite}}@keyframes fl{0%,100%{transform:translateY(0)}50%{transform:translateY(-9px)}}@keyframes tw{0%,100%{opacity:.35}50%{opacity:1}}</style><g class="fl2"><g transform="translate(41.61,486.66) rotate(4.77)"><path d="M0,51.1 l-5.01,8.52 l10.02,0 Z" fill="#e2b6ae" opacity=".85"/><ellipse cx="0" cy="0" rx="50.1" ry="53.11" fill="url(#gx012)"/></g><g transform="translate(83.38,496.55) rotate(3.96)"><path d="M0,49.38 l-4.84,8.23 l9.68,0 Z" fill="#f3e2dc" opacity=".85"/><ellipse cx="0" cy="0" rx="48.41" ry="51.32" fill="url(#gx011)"/><ellipse cx="-15.98" cy="-17.43" rx="9.68" ry="14.52" fill="#f8efeb" opacity=".55" transform="rotate(-18 -15.98 -17.43)"/><ellipse cx="19.37" cy="14.52" rx="6.29" ry="10.65" fill="#f8efeb" opacity=".20"/></g><g transform="translate(196.08,771.12) rotate(-6.88)"><path d="M0,47.7 l-4.68,7.95 l9.35,0 Z" fill="#c08a4e" opacity=".85"/><ellipse cx="0" cy="0" rx="46.77" ry="49.57" fill="url(#gx023)"/></g><g transform="translate(135.67,607.34) rotate(-4.73)"><path d="M0,43.51 l-4.27,7.25 l8.53,0 Z" fill="#c08a4e" opacity=".85"/><ellipse cx="0" cy="0" rx="42.66" ry="45.22" fill="url(#gx015)"/><ellipse cx="-14.08" cy="-15.36" rx="8.53" ry="12.8" fill="#dcbe9d" opacity=".55" transform="rotate(-18 -14.08 -15.36)"/><ellipse cx="17.06" cy="12.8" rx="5.55" ry="9.38" fill="#dcbe9d" opacity=".20"/></g><g transform="translate(88.91,555.01) rotate(-16.82)"><path d="M0,41.68 l-4.09,6.95 l8.17,0 Z" fill="#e8bdae" opacity=".85"/><ellipse cx="0" cy="0" rx="40.86" ry="43.31" fill="url(#gx016)"/></g><g transform="translate(126.15,829.09) rotate(5.18)"><path d="M0,41.61 l-4.08,6.93 l8.16,0 Z" fill="#f3e2dc" opacity=".85"/><ellipse cx="0" cy="0" rx="40.79" ry="43.24" fill="url(#gx024)"/><ellipse cx="-13.46" cy="-14.68" rx="8.16" ry="12.24" fill="#f8efeb" opacity=".55" transform="rotate(-18 -13.46 -14.68)"/><ellipse cx="16.32" cy="12.24" rx="5.3" ry="8.97" fill="#f8efeb" opacity=".20"/></g><g transform="translate(144.45,772.55) rotate(-15.09)"><path d="M0,40.7 l-3.99,6.78 l7.98,0 Z" fill="#f0d8d4" opacity=".85"/><ellipse cx="0" cy="0" rx="39.9" ry="42.29" fill="url(#gx020)"/><ellipse cx="-13.17" cy="-14.36" rx="7.98" ry="11.97" fill="#f6e9e7" opacity=".55" transform="rotate(-18 -13.17 -14.36)"/><ellipse cx="15.96" cy="11.97" rx="5.19" ry="8.78" fill="#f6e9e7" opacity=".20"/></g><g transform="translate(79.02,698.52) rotate(14.36)"><path d="M0,40.58 l-3.98,6.76 l7.96,0 Z" fill="#d9a38c" opacity=".85"/><ellipse cx="0" cy="0" rx="39.79" ry="42.18" fill="url(#gx017)"/><ellipse cx="-13.13" cy="-14.32" rx="7.96" ry="11.94" fill="#eaccbf" opacity=".55" transform="rotate(-18 -13.13 -14.32)"/><ellipse cx="15.92" cy="11.94" rx="5.17" ry="8.75" fill="#eaccbf" opacity=".20"/></g><g transform="translate(95.86,468.87) rotate(11.63)"><path d="M0,39.21 l-3.84,6.54 l7.69,0 Z" fill="#f7efe9" opacity=".85"/><ellipse cx="0" cy="0" rx="38.44" ry="40.75" fill="url(#gx013)"/></g><g transform="translate(47.93,405.3) rotate(2.43)"><path d="M0,37.18 l-3.65,6.2 l7.29,0 Z" fill="#e8bdae" opacity=".85"/><ellipse cx="0" cy="0" rx="36.45" ry="38.64" fill="url(#gx09)"/></g><g transform="translate(-37.62,286.65) rotate(16.8)"><path d="M0,35.25 l-3.46,5.88 l6.91,0 Z" fill="#f3e2dc" opacity=".85"/><ellipse cx="0" cy="0" rx="34.56" ry="36.64" fill="url(#gx04)"/><ellipse cx="-11.41" cy="-12.44" rx="6.91" ry="10.37" fill="#f8efeb" opacity=".55" transform="rotate(-18 -11.41 -12.44)"/><ellipse cx="13.83" cy="10.37" rx="4.49" ry="7.6" fill="#f8efeb" opacity=".20"/></g><g transform="translate(-27.05,312.45) rotate(-2.73)"><path d="M0,32.99 l-3.23,5.5 l6.47,0 Z" fill="#d9a38c" opacity=".85"/><ellipse cx="0" cy="0" rx="32.34" ry="34.28" fill="url(#gx05)"/></g><g transform="translate(3.32,401.78) rotate(9.58)"><path d="M0,32.9 l-3.23,5.48 l6.45,0 Z" fill="#e2b6ae" opacity=".85"/><ellipse cx="0" cy="0" rx="32.25" ry="34.19" fill="url(#gx08)"/></g><g transform="translate(-33.49,317.03) rotate(-16.35)"><path d="M0,32.43 l-3.18,5.41 l6.36,0 Z" fill="#c9797f" opacity=".85"/><ellipse cx="0" cy="0" rx="31.8" ry="33.7" fill="url(#gx06)"/><ellipse cx="-10.49" cy="-11.45" rx="6.36" ry="9.54" fill="#e1b5b8" opacity=".55" transform="rotate(-18 -10.49 -11.45)"/><ellipse cx="12.72" cy="9.54" rx="4.13" ry="7.0" fill="#e1b5b8" opacity=".20"/></g><g transform="translate(130.74,863.64) rotate(21.5)"><path d="M0,31.05 l-3.04,5.18 l6.09,0 Z" fill="#d9a38c" opacity=".85"/><ellipse cx="0" cy="0" rx="30.44" ry="32.27" fill="url(#gx026)"/><ellipse cx="-10.05" cy="-10.96" rx="6.09" ry="9.13" fill="#eaccbf" opacity=".55" transform="rotate(-18 -10.05 -10.96)"/><ellipse cx="12.18" cy="9.13" rx="3.96" ry="6.7" fill="#eaccbf" opacity=".20"/></g><g transform="translate(131.2,799.87) rotate(-2.86)"><path d="M0,30.69 l-3.01,5.12 l6.02,0 Z" fill="#e2b6ae" opacity=".85"/><ellipse cx="0" cy="0" rx="30.09" ry="31.9" fill="url(#gx021)"/></g><g transform="translate(132.39,849.4) rotate(6.9)"><path d="M0,29.46 l-2.89,4.91 l5.78,0 Z" fill="#c08a4e" opacity=".85"/><ellipse cx="0" cy="0" rx="28.88" ry="30.62" fill="url(#gx025)"/><ellipse cx="-9.53" cy="-10.4" rx="5.78" ry="8.66" fill="#dcbe9d" opacity=".55" transform="rotate(-18 -9.53 -10.4)"/><ellipse cx="11.55" cy="8.66" rx="3.75" ry="6.35" fill="#dcbe9d" opacity=".20"/></g><g transform="translate(113.06,668.4) rotate(-17.82)"><path d="M0,28.41 l-2.79,4.73 l5.57,0 Z" fill="#e8bdae" opacity=".85"/><ellipse cx="0" cy="0" rx="27.85" ry="29.52" fill="url(#gx019)"/></g><g transform="translate(106.55,685.05) rotate(-18.2)"><path d="M0,28.01 l-2.75,4.67 l5.49,0 Z" fill="#f3e2dc" opacity=".85"/><ellipse cx="0" cy="0" rx="27.46" ry="29.1" fill="url(#gx018)"/><ellipse cx="-9.06" cy="-9.88" rx="5.49" ry="8.24" fill="#f8efeb" opacity=".55" transform="rotate(-18 -9.06 -9.88)"/><ellipse cx="10.98" cy="8.24" rx="3.57" ry="6.04" fill="#f8efeb" opacity=".20"/></g><g transform="translate(38.79,367.75) rotate(-6.63)"><path d="M0,26.9 l-2.64,4.48 l5.27,0 Z" fill="#f7efe9" opacity=".85"/><ellipse cx="0" cy="0" rx="26.37" ry="27.95" fill="url(#gx010)"/><ellipse cx="-8.7" cy="-9.49" rx="5.27" ry="7.91" fill="#faf6f2" opacity=".55" transform="rotate(-18 -8.7 -9.49)"/><ellipse cx="10.55" cy="7.91" rx="3.43" ry="5.8" fill="#faf6f2" opacity=".20"/></g><g transform="translate(84.02,494.13) rotate(-0.34)"><path d="M0,25.55 l-2.5,4.26 l5.01,0 Z" fill="#f0d8d4" opacity=".85"/><ellipse cx="0" cy="0" rx="25.04" ry="26.55" fill="url(#gx014)"/><ellipse cx="-8.26" cy="-9.02" rx="5.01" ry="7.51" fill="#f6e9e7" opacity=".55" transform="rotate(-18 -8.26 -9.02)"/><ellipse cx="10.02" cy="7.51" rx="3.26" ry="5.51" fill="#f6e9e7" opacity=".20"/></g><g transform="translate(-81.65,190.52) rotate(1.51)"><path d="M0,25.05 l-2.46,4.17 l4.91,0 Z" fill="#c08a4e" opacity=".85"/><ellipse cx="0" cy="0" rx="24.56" ry="26.03" fill="url(#gx02)"/></g><g transform="translate(-23.04,279.19) rotate(-4.31)"><path d="M0,24.74 l-2.43,4.12 l4.85,0 Z" fill="#e8bdae" opacity=".85"/><ellipse cx="0" cy="0" rx="24.25" ry="25.71" fill="url(#gx07)"/><ellipse cx="-8.0" cy="-8.73" rx="4.85" ry="7.28" fill="#f2dad2" opacity=".55" transform="rotate(-18 -8.0 -8.73)"/><ellipse cx="9.7" cy="7.28" rx="3.15" ry="5.34" fill="#f2dad2" opacity=".20"/></g><g transform="translate(-83.52,197.84) rotate(-10.21)"><path d="M0,24.32 l-2.38,4.05 l4.77,0 Z" fill="#d9a38c" opacity=".85"/><ellipse cx="0" cy="0" rx="23.84" ry="25.27" fill="url(#gx01)"/><ellipse cx="-7.87" cy="-8.58" rx="4.77" ry="7.15" fill="#eaccbf" opacity=".55" transform="rotate(-18 -7.87 -8.58)"/><ellipse cx="9.54" cy="7.15" rx="3.1" ry="5.25" fill="#eaccbf" opacity=".20"/></g><g transform="translate(-20.28,179.42) rotate(-17.86)"><path d="M0,23.94 l-2.35,3.99 l4.69,0 Z" fill="#e2b6ae" opacity=".85"/><ellipse cx="0" cy="0" rx="23.47" ry="24.88" fill="url(#gx03)"/><ellipse cx="-7.75" cy="-8.45" rx="4.69" ry="7.04" fill="#efd6d2" opacity=".55" transform="rotate(-18 -7.75 -8.45)"/><ellipse cx="9.39" cy="7.04" rx="3.05" ry="5.16" fill="#efd6d2" opacity=".20"/></g><g transform="translate(154.52,748.73) rotate(-0.45)"><path d="M0,22.16 l-2.17,3.69 l4.35,0 Z" fill="#c9797f" opacity=".85"/><ellipse cx="0" cy="0" rx="21.73" ry="23.03" fill="url(#gx022)"/><ellipse cx="-7.17" cy="-7.82" rx="4.35" ry="6.52" fill="#e1b5b8" opacity=".55" transform="rotate(-18 -7.17 -7.82)"/><ellipse cx="8.69" cy="6.52" rx="2.82" ry="4.78" fill="#e1b5b8" opacity=".20"/></g><g transform="translate(224.28,932.25) rotate(8.08)"><path d="M0,21.86 l-2.14,3.64 l4.29,0 Z" fill="#e8bdae" opacity=".85"/><ellipse cx="0" cy="0" rx="21.43" ry="22.72" fill="url(#gx028)"/></g><g transform="translate(185.21,906.79) rotate(-2.67)"><path d="M0,16.18 l-1.59,2.7 l3.17,0 Z" fill="#c08a4e" opacity=".85"/><ellipse cx="0" cy="0" rx="15.87" ry="16.82" fill="url(#gx027)"/></g><g transform="translate(201.77,899.95) rotate(-0.8)"><path d="M0,13.55 l-1.33,2.26 l2.66,0 Z" fill="#d9a38c" opacity=".85"/><ellipse cx="0" cy="0" rx="13.29" ry="14.09" fill="url(#gx029)"/></g></g><ellipse cx="-26.02" cy="182.99" rx="27.36" ry="9.88" fill="#c6d0b6" opacity=".8" transform="rotate(333.4 -26.02 182.99)"/><ellipse cx="-78.94" cy="167.06" rx="27.36" ry="9.88" fill="#c6d0b6" opacity=".8" transform="rotate(240.1 -78.94 167.06)"/><ellipse cx="-25.83" cy="216.63" rx="27.36" ry="9.88" fill="#c6d0b6" opacity=".8" transform="rotate(25.95 -25.83 216.63)"/><ellipse cx="36.61" cy="465.6" rx="27.36" ry="9.88" fill="#c6d0b6" opacity=".8" transform="rotate(238.87 36.61 465.6)"/><ellipse cx="27.85" cy="523.37" rx="27.36" ry="9.88" fill="#c6d0b6" opacity=".8" transform="rotate(138.37 27.85 523.37)"/><ellipse cx="91.23" cy="512.96" rx="27.36" ry="9.88" fill="#c6d0b6" opacity=".8" transform="rotate(22.98 91.23 512.96)"/><ellipse cx="66.98" cy="534.58" rx="27.36" ry="9.88" fill="#c6d0b6" opacity=".8" transform="rotate(73.6 66.98 534.58)"/><ellipse cx="58.12" cy="460.17" rx="27.36" ry="9.88" fill="#c6d0b6" opacity=".8" transform="rotate(272.81 58.12 460.17)"/><ellipse cx="156.17" cy="800.0" rx="27.36" ry="9.88" fill="#c6d0b6" opacity=".8" transform="rotate(80.65 156.17 800.0)"/><ellipse cx="133.39" cy="796.68" rx="27.36" ry="9.88" fill="#c6d0b6" opacity=".8" transform="rotate(115.92 133.39 796.68)"/><ellipse cx="130.52" cy="795.12" rx="27.36" ry="9.88" fill="#c6d0b6" opacity=".8" transform="rotate(120.85 130.52 795.12)"/><g class="fl"><g transform="translate(1118.64,558.0) rotate(19.54)"><path d="M0,58.36 l-5.72,9.73 l11.44,0 Z" fill="#e2b6ae" opacity=".85"/><ellipse cx="0" cy="0" rx="57.22" ry="60.65" fill="url(#gx116)"/><ellipse cx="-18.88" cy="-20.6" rx="11.44" ry="17.17" fill="#efd6d2" opacity=".55" transform="rotate(-18 -18.88 -20.6)"/><ellipse cx="22.89" cy="17.17" rx="7.44" ry="12.59" fill="#efd6d2" opacity=".20"/></g><g transform="translate(1132.72,507.79) rotate(0.56)"><path d="M0,51.75 l-5.07,8.63 l10.15,0 Z" fill="#e8bdae" opacity=".85"/><ellipse cx="0" cy="0" rx="50.74" ry="53.78" fill="url(#gx113)"/><ellipse cx="-16.74" cy="-18.27" rx="10.15" ry="15.22" fill="#f2dad2" opacity=".55" transform="rotate(-18 -16.74 -18.27)"/><ellipse cx="20.3" cy="15.22" rx="6.6" ry="11.16" fill="#f2dad2" opacity=".20"/></g><g transform="translate(1133.87,528.96) rotate(2.21)"><path d="M0,51.64 l-5.06,8.61 l10.12,0 Z" fill="#e8bdae" opacity=".85"/><ellipse cx="0" cy="0" rx="50.62" ry="53.66" fill="url(#gx114)"/><ellipse cx="-16.71" cy="-18.22" rx="10.12" ry="15.19" fill="#f2dad2" opacity=".55" transform="rotate(-18 -16.71 -18.22)"/><ellipse cx="20.25" cy="15.19" rx="6.58" ry="11.14" fill="#f2dad2" opacity=".20"/></g><g transform="translate(1136.34,476.16) rotate(3.33)"><path d="M0,49.96 l-4.9,8.33 l9.8,0 Z" fill="#d9a38c" opacity=".85"/><ellipse cx="0" cy="0" rx="48.98" ry="51.91" fill="url(#gx112)"/><ellipse cx="-16.16" cy="-17.63" rx="9.8" ry="14.69" fill="#eaccbf" opacity=".55" transform="rotate(-18 -16.16 -17.63)"/><ellipse cx="19.59" cy="14.69" rx="6.37" ry="10.77" fill="#eaccbf" opacity=".20"/></g><g transform="translate(1011.74,792.51) rotate(4.76)"><path d="M0,49.1 l-4.81,8.18 l9.63,0 Z" fill="#f7efe9" opacity=".85"/><ellipse cx="0" cy="0" rx="48.14" ry="51.03" fill="url(#gx121)"/><ellipse cx="-15.89" cy="-17.33" rx="9.63" ry="14.44" fill="#faf6f2" opacity=".55" transform="rotate(-18 -15.89 -17.33)"/><ellipse cx="19.26" cy="14.44" rx="6.26" ry="10.59" fill="#faf6f2" opacity=".20"/></g><g transform="translate(1027.54,782.2) rotate(-20.22)"><path d="M0,46.83 l-4.59,7.81 l9.18,0 Z" fill="#f3e2dc" opacity=".85"/><ellipse cx="0" cy="0" rx="45.91" ry="48.67" fill="url(#gx120)"/><ellipse cx="-15.15" cy="-16.53" rx="9.18" ry="13.77" fill="#f8efeb" opacity=".55" transform="rotate(-18 -15.15 -16.53)"/><ellipse cx="18.37" cy="13.77" rx="5.97" ry="10.1" fill="#f8efeb" opacity=".20"/></g><g transform="translate(1109.64,488.42) rotate(-11.22)"><path d="M0,45.55 l-4.47,7.59 l8.93,0 Z" fill="#c9797f" opacity=".85"/><ellipse cx="0" cy="0" rx="44.66" ry="47.34" fill="url(#gx111)"/></g><g transform="translate(1037.77,748.7) rotate(-6.53)"><path d="M0,43.68 l-4.28,7.28 l8.57,0 Z" fill="#e2b6ae" opacity=".85"/><ellipse cx="0" cy="0" rx="42.83" ry="45.4" fill="url(#gx122)"/></g><g transform="translate(1095.6,589.86) rotate(5.14)"><path d="M0,41.3 l-4.05,6.88 l8.1,0 Z" fill="#e8bdae" opacity=".85"/><ellipse cx="0" cy="0" rx="40.49" ry="42.92" fill="url(#gx115)"/><ellipse cx="-13.36" cy="-14.58" rx="8.1" ry="12.15" fill="#f2dad2" opacity=".55" transform="rotate(-18 -13.36 -14.58)"/><ellipse cx="16.2" cy="12.15" rx="5.26" ry="8.91" fill="#f2dad2" opacity=".20"/></g><g transform="translate(1192.5,397.55) rotate(-7.95)"><path d="M0,39.75 l-3.9,6.63 l7.79,0 Z" fill="#c08a4e" opacity=".85"/><ellipse cx="0" cy="0" rx="38.97" ry="41.31" fill="url(#gx19)"/><ellipse cx="-12.86" cy="-14.03" rx="7.79" ry="11.69" fill="#dcbe9d" opacity=".55" transform="rotate(-18 -12.86 -14.03)"/><ellipse cx="15.59" cy="11.69" rx="5.07" ry="8.57" fill="#dcbe9d" opacity=".20"/></g><g transform="translate(1244.22,308.25) rotate(-3.38)"><path d="M0,36.3 l-3.56,6.05 l7.12,0 Z" fill="#d9a38c" opacity=".85"/><ellipse cx="0" cy="0" rx="35.59" ry="37.72" fill="url(#gx14)"/></g><g transform="translate(1039.63,738.24) rotate(-4.4)"><path d="M0,32.98 l-3.23,5.5 l6.47,0 Z" fill="#c9797f" opacity=".85"/><ellipse cx="0" cy="0" rx="32.34" ry="34.28" fill="url(#gx119)"/></g><g transform="translate(1157.21,367.78) rotate(12.61)"><path d="M0,32.14 l-3.15,5.36 l6.3,0 Z" fill="#d9a38c" opacity=".85"/><ellipse cx="0" cy="0" rx="31.51" ry="33.4" fill="url(#gx18)"/><ellipse cx="-10.4" cy="-11.34" rx="6.3" ry="9.45" fill="#eaccbf" opacity=".55" transform="rotate(-18 -10.4 -11.34)"/><ellipse cx="12.6" cy="9.45" rx="4.1" ry="6.93" fill="#eaccbf" opacity=".20"/></g><g transform="translate(1236.2,292.63) rotate(3.01)"><path d="M0,32.02 l-3.14,5.34 l6.28,0 Z" fill="#e8bdae" opacity=".85"/><ellipse cx="0" cy="0" rx="31.4" ry="33.28" fill="url(#gx16)"/></g><g transform="translate(1050.15,835.06) rotate(12.58)"><path d="M0,32.0 l-3.14,5.33 l6.27,0 Z" fill="#c08a4e" opacity=".85"/><ellipse cx="0" cy="0" rx="31.37" ry="33.25" fill="url(#gx123)"/></g><g transform="translate(1021.34,936.7) rotate(-18.05)"><path d="M0,31.93 l-3.13,5.32 l6.26,0 Z" fill="#f0d8d4" opacity=".85"/><ellipse cx="0" cy="0" rx="31.31" ry="33.19" fill="url(#gx126)"/><ellipse cx="-10.33" cy="-11.27" rx="6.26" ry="9.39" fill="#f6e9e7" opacity=".55" transform="rotate(-18 -10.33 -11.27)"/><ellipse cx="12.52" cy="9.39" rx="4.07" ry="6.89" fill="#f6e9e7" opacity=".20"/></g><g transform="translate(1181.7,390.9) rotate(-18.72)"><path d="M0,30.18 l-2.96,5.03 l5.92,0 Z" fill="#f7efe9" opacity=".85"/><ellipse cx="0" cy="0" rx="29.59" ry="31.37" fill="url(#gx110)"/></g><g transform="translate(982.32,883.74) rotate(-0.87)"><path d="M0,26.81 l-2.63,4.47 l5.26,0 Z" fill="#d9a38c" opacity=".85"/><ellipse cx="0" cy="0" rx="26.28" ry="27.86" fill="url(#gx127)"/><ellipse cx="-8.67" cy="-9.46" rx="5.26" ry="7.88" fill="#eaccbf" opacity=".55" transform="rotate(-18 -8.67 -9.46)"/><ellipse cx="10.51" cy="7.88" rx="3.42" ry="5.78" fill="#eaccbf" opacity=".20"/></g><g transform="translate(1132.31,669.88) rotate(2.4)"><path d="M0,26.42 l-2.59,4.4 l5.18,0 Z" fill="#e2b6ae" opacity=".85"/><ellipse cx="0" cy="0" rx="25.9" ry="27.45" fill="url(#gx117)"/></g><g transform="translate(1218.58,223.88) rotate(-9.3)"><path d="M0,26.34 l-2.58,4.39 l5.16,0 Z" fill="#f0d8d4" opacity=".85"/><ellipse cx="0" cy="0" rx="25.82" ry="27.37" fill="url(#gx13)"/><ellipse cx="-8.52" cy="-9.3" rx="5.16" ry="7.75" fill="#f6e9e7" opacity=".55" transform="rotate(-18 -8.52 -9.3)"/><ellipse cx="10.33" cy="7.75" rx="3.36" ry="5.68" fill="#f6e9e7" opacity=".20"/></g><g transform="translate(993.05,851.79) rotate(-15.35)"><path d="M0,23.42 l-2.3,3.9 l4.59,0 Z" fill="#d9a38c" opacity=".85"/><ellipse cx="0" cy="0" rx="22.96" ry="24.34" fill="url(#gx124)"/><ellipse cx="-7.58" cy="-8.27" rx="4.59" ry="6.89" fill="#eaccbf" opacity=".55" transform="rotate(-18 -7.58 -8.27)"/><ellipse cx="9.18" cy="6.89" rx="2.98" ry="5.05" fill="#eaccbf" opacity=".20"/></g><g transform="translate(1066.8,695.86) rotate(-0.23)"><path d="M0,22.84 l-2.24,3.81 l4.48,0 Z" fill="#c9797f" opacity=".85"/><ellipse cx="0" cy="0" rx="22.4" ry="23.74" fill="url(#gx118)"/><ellipse cx="-7.39" cy="-8.06" rx="4.48" ry="6.72" fill="#e1b5b8" opacity=".55" transform="rotate(-18 -7.39 -8.06)"/><ellipse cx="8.96" cy="6.72" rx="2.91" ry="4.93" fill="#e1b5b8" opacity=".20"/></g><g transform="translate(1239.78,187.51) rotate(-14.07)"><path d="M0,21.55 l-2.11,3.59 l4.23,0 Z" fill="#e8bdae" opacity=".85"/><ellipse cx="0" cy="0" rx="21.13" ry="22.4" fill="url(#gx12)"/></g><g transform="translate(961.13,920.8) rotate(20.98)"><path d="M0,21.18 l-2.08,3.53 l4.15,0 Z" fill="#f0d8d4" opacity=".85"/><ellipse cx="0" cy="0" rx="20.77" ry="22.01" fill="url(#gx125)"/><ellipse cx="-6.85" cy="-7.48" rx="4.15" ry="6.23" fill="#f6e9e7" opacity=".55" transform="rotate(-18 -6.85 -7.48)"/><ellipse cx="8.31" cy="6.23" rx="2.7" ry="4.57" fill="#f6e9e7" opacity=".20"/></g><g transform="translate(1225.66,319.04) rotate(-15.92)"><path d="M0,20.54 l-2.01,3.42 l4.03,0 Z" fill="#f3e2dc" opacity=".85"/><ellipse cx="0" cy="0" rx="20.14" ry="21.35" fill="url(#gx17)"/><ellipse cx="-6.65" cy="-7.25" rx="4.03" ry="6.04" fill="#f8efeb" opacity=".55" transform="rotate(-18 -6.65 -7.25)"/><ellipse cx="8.06" cy="6.04" rx="2.62" ry="4.43" fill="#f8efeb" opacity=".20"/></g><g transform="translate(1252.57,189.07) rotate(-4.21)"><path d="M0,19.18 l-1.88,3.2 l3.76,0 Z" fill="#e2b6ae" opacity=".85"/><ellipse cx="0" cy="0" rx="18.8" ry="19.93" fill="url(#gx11)"/><ellipse cx="-6.21" cy="-6.77" rx="3.76" ry="5.64" fill="#efd6d2" opacity=".55" transform="rotate(-18 -6.21 -6.77)"/><ellipse cx="7.52" cy="5.64" rx="2.44" ry="4.14" fill="#efd6d2" opacity=".20"/></g><g transform="translate(1222.16,286.49) rotate(-0.64)"><path d="M0,18.86 l-1.85,3.14 l3.7,0 Z" fill="#f3e2dc" opacity=".85"/><ellipse cx="0" cy="0" rx="18.49" ry="19.6" fill="url(#gx15)"/><ellipse cx="-6.1" cy="-6.66" rx="3.7" ry="5.55" fill="#f8efeb" opacity=".55" transform="rotate(-18 -6.1 -6.66)"/><ellipse cx="7.39" cy="5.55" rx="2.4" ry="4.07" fill="#f8efeb" opacity=".20"/></g></g><ellipse cx="1224.24" cy="187.15" rx="27.36" ry="9.88" fill="#c6d0b6" opacity=".8" transform="rotate(199.77 1224.24 187.15)"/><ellipse cx="1295.84" cy="187.38" rx="27.36" ry="9.88" fill="#c6d0b6" opacity=".8" transform="rotate(340.6 1295.84 187.38)"/><ellipse cx="1239.9" cy="167.75" rx="27.36" ry="9.88" fill="#c6d0b6" opacity=".8" transform="rotate(238.07 1239.9 167.75)"/><ellipse cx="1270.77" cy="163.56" rx="27.36" ry="9.88" fill="#c6d0b6" opacity=".8" transform="rotate(286.46 1270.77 163.56)"/><ellipse cx="1107.61" cy="509.86" rx="27.36" ry="9.88" fill="#c6d0b6" opacity=".8" transform="rotate(162.01 1107.61 509.86)"/><ellipse cx="1135.13" cy="535.13" rx="27.36" ry="9.88" fill="#c6d0b6" opacity=".8" transform="rotate(103.11 1135.13 535.13)"/><ellipse cx="1181.63" cy="501.1" rx="27.36" ry="9.88" fill="#c6d0b6" opacity=".8" transform="rotate(4.49 1181.63 501.1)"/><ellipse cx="1135.47" cy="461.04" rx="27.36" ry="9.88" fill="#c6d0b6" opacity=".8" transform="rotate(257.41 1135.47 461.04)"/><ellipse cx="1159.37" cy="463.48" rx="27.36" ry="9.88" fill="#c6d0b6" opacity=".8" transform="rotate(294.27 1159.37 463.48)"/><ellipse cx="1177.39" cy="480.45" rx="27.36" ry="9.88" fill="#c6d0b6" opacity=".8" transform="rotate(332.27 1177.39 480.45)"/><ellipse cx="1083.1" cy="781.17" rx="27.36" ry="9.88" fill="#c6d0b6" opacity=".8" transform="rotate(29.43 1083.1 781.17)"/><ellipse cx="1067.21" cy="728.62" rx="27.36" ry="9.88" fill="#c6d0b6" opacity=".8" transform="rotate(296.94 1067.21 728.62)"/><ellipse cx="1012.39" cy="757.05" rx="27.36" ry="9.88" fill="#c6d0b6" opacity=".8" transform="rotate(188.25 1012.39 757.05)"/><ellipse cx="1083.93" cy="779.61" rx="27.36" ry="9.88" fill="#c6d0b6" opacity=".8" transform="rotate(26.76 1083.93 779.61)"/><ellipse cx="1026.68" cy="732.49" rx="27.36" ry="9.88" fill="#c6d0b6" opacity=".8" transform="rotate(232.15 1026.68 732.49)"/></svg>