<svg xmlns="http://www.w3.org/2000/svg" viewBox="0 0 1200 900" width="1200" height="900" role="img"><defs><linearGradient id="wall" x1="0" y1="0" x2="0" y2="1"><stop offset="0%" stop-color="#fbf5f2"/><stop offset="100%" stop-color="#f1e2dc"/></linearGradient><radialGradient id="gs1" cx="34%" cy="30%" r="78%"><stop offset="0%" stop-color="#f6e9e7"/><stop offset="52%" stop-color="#f0d8d4"/><stop offset="100%" stop-color="#bba8a5"/></radialGradient><radialGradient id="gs2" cx="34%" cy="30%" r="78%"><stop offset="0%" stop-color="#f6e9e7"/><stop offset="52%" stop-color="#f0d8d4"/><stop offset="100%" stop-color="#bba8a5"/></radialGradient><radialGradient id="gs3" cx="34%" cy="30%" r="78%"><stop offset="0%" stop-color="#f6e9e7"/><stop offset="52%" stop-color="#f0d8d4"/><stop offset="100%" stop-color="#bba8a5"/></radialGradient><radialGradient id="gs4" cx="34%" cy="30%" r="78%"><stop offset="0%" stop-color="#faf6f2"/><stop offset="52%" stop-color="#f7efe9"/><stop offset="100%" stop-color="#c0bab5"/></radialGradient><radialGradient id="gs5" cx="34%" cy="30%" r="78%"><stop offset="0%" stop-color="#ffffff"/><stop offset="52%" stop-color="#ffffff"/><stop offset="100%" stop-color="#c6c6c6"/></radialGradient><radialGradient id="gs6" cx="34%" cy="30%" r="78%"><stop offset="0%" stop-color="#eaccbf"/><stop offset="52%" stop-color="#d9a38c"/><stop offset="100%" stop-color="#a97f6d"/></radialGradient><radialGradient id="gs7" cx="34%" cy="30%" r="78%"><stop offset="0%" stop-color="#dcbe9d"/><stop offset="52%" stop-color="#c08a4e"/><stop offset="100%" stop-color="#956b3c"/></radialGradient><radialGradient id="gs8" cx="34%" cy="30%" r="78%"><stop offset="0%" stop-color="#eaccbf"/><stop offset="52%" stop-color="#d9a38c"/><stop offset="100%" stop-color="#a97f6d"/></radialGradient><radialGradient id="gs9" cx="34%" cy="30%" r="78%"><stop offset="0%" stop-color="#dcbe9d"/><stop offset="52%" stop-color="#c08a4e"/><stop offset="100%" stop-color="#956b3c"/></radialGradient><radialGradient id="gs10" cx="34%" cy="30%" r="78%"><stop offset="0%" stop-color="#ffffff"/><stop offset="52%" stop-color="#ffffff"/><stop offset="100%" stop-color="#c6c6c6"/></radialGradient><radialGradient id="gs11" cx="34%" cy="30%" r="78%"><stop offset="0%" stop-color="#ffffff"/><stop offset="52%" stop-color="#ffffff"/><stop offset="100%" stop-color="#c6c6c6"/></radialGradient><radialGradient id="gs12" cx="34%" cy="30%" r="78%"><stop offset="0%" stop-color="#dcbe9d"/><stop offset="52%" stop-color="#c08a4e"/><stop offset="100%" stop-color="#956b3c"/></radialGradient><radialGradient id="gs13" cx="34%" cy="30%" r="78%"><stop offset="0%" stop-color="#dcbe9d"/><stop offset="52%" stop-color="#c08a4e"/><stop offset="100%" stop-color="#956b3c"/></radialGradient><radialGradient id="gs14" cx="34%" cy="30%" r="78%"><stop offset="0%" stop-color="#dcbe9d"/><stop offset="52%" stop-color="#c08a4e"/><stop offset="100%" stop-color="#956b3c"/></radialGradient><radialGradient id="gs15" cx="34%" cy="30%" r="78%"><stop offset="0%" stop-color="#dcbe9d"/><stop offset="52%" stop-color="#c08a4e"/><stop offset="100%" stop-color="#956b3c"/></radialGradient><radialGradient id="gs16" cx="34%" cy="30%" r="78%"><stop offset="0%" stop-color="#d1afa3"/><stop offset="52%" stop-color="#ac6e59"/><stop offset="100%" stop-color="#865545"/></radialGradient><radialGradient id="gs17" cx="34%" cy="30%" r="78%"><stop offset="0%" stop-color="#eaccbf"/><stop offset="52%" stop-color="#d9a38c"/><stop offset="100%" stop-color="#a97f6d"/></radialGradient><radialGradient id="gs18" cx="34%" cy="30%" r="78%"><stop offset="0%" stop-color="#eaccbf"/><stop offset="52%" stop-color="#d9a38c"/><stop offset="100%" stop-color="#a97f6d"/></radialGradient><radialGradient id="gs19" cx="34%" cy="30%" r="78%"><stop offset="0%" stop-color="#eaccbf"/><stop offset="52%" stop-color="#d9a38c"/><stop offset="100%" stop-color="#a97f6d"/></radialGradient><radialGradient id="gs20" cx="34%" cy="30%" r="78%"><stop offset="0%" stop-color="#f6e9e7"/><stop offset="52%" stop-color="#f0d8d4"/><stop offset="100%" stop-color="#bba8a5"/></radialGradient><radialGradient id="gs21" cx="34%" cy="30%" r="78%"><stop offset="0%" stop-color="#d1afa3"/><stop offset="52%" stop-color="#ac6e59"/><stop offset="100%" stop-color="#865545"/></radialGradient><radialGradient id="gs22" cx="34%" cy="30%" r="78%"><stop offset="0%" stop-color="#dcbe9d"/><stop offset="52%" stop-color="#c08a4e"/><stop offset="100%" stop-color="#956b3c"/></radialGradient><radialGradient id="gs23" cx="34%" cy="30%" r="78%"><stop offset="0%" stop-color="#eaccbf"/><stop offset="52%" stop-color="#d9a38c"/><stop offset="100%" stop-color="#a97f6d"/></radialGradient><radialGradient id="gs24" cx="34%" cy="30%" r="78%"><stop offset="0%" stop-color="#faf6f2"/><stop offset="52%" stop-color="#f7efe9"/><stop offset="100%" stop-color="#c0bab5"/></radialGradient><radialGradient id="gs25" cx="34%" cy="30%" r="78%"><stop offset="0%" stop-color="#f6e9e7"/><stop offset="52%" stop-color="#f0d8d4"/><stop offset="100%" stop-color="#bba8a5"/></radialGradient><radialGradient id="gs26" cx="34%" cy="30%" r="78%"><stop offset="0%" stop-color="#faf6f2"/><stop offset="52%" stop-color="#f7efe9"/><stop offset="100%" stop-color="#c0bab5"/></radialGradient><radialGradient id="gs27" cx="34%" cy="30%" r="78%"><stop offset="0%" stop-color="#dcbe9d"/><stop offset="52%" stop-color="#c08a4e"/><stop offset="100%" stop-color="#956b3c"/></radialGradient><radialGradient id="gs28" cx="34%" cy="30%" r="78%"><stop offset="0%" stop-color="#ffffff"/><stop offset="52%" stop-color="#ffffff"/><stop offset="100%" stop-color="#c6c6c6"/></radialGradient><radialGradient id="gs29" cx="34%" cy="30%" r="78%"><stop offset="0%" stop-color="#dcbe9d"/><stop offset="52%" stop-color="#c08a4e"/><stop offset="100%" stop-color="#956b3c"/></radialGradient><radialGradient id="gs30" cx="34%" cy="30%" r="78%"><stop offset="0%" stop-color="#eaccbf"/><stop offset="52%" stop-color="#d9a38c"/><stop offset="100%" stop-color="#a97f6d"/></radialGradient><radialGradient id="gs31" cx="34%" cy="30%" r="78%"><stop offset="0%" stop-color="#d1afa3"/><stop offset="52%" stop-color="#ac6e59"/><stop offset="100%" stop-color="#865545"/></radialGradient><radialGradient id="gs32" cx="34%" cy="30%" r="78%"><stop offset="0%" stop-color="#d1afa3"/><stop offset="52%" stop-color="#ac6e59"/><stop offset="100%" stop-color="#865545"/></radialGradient><radialGradient id="gs33" cx="34%" cy="30%" r="78%"><stop offset="0%" stop-color="#f6e9e7"/><stop offset="52%" stop-color="#f0d8d4"/><stop offset="100%" stop-color="#bba8a5"/></radialGradient><radialGradient id="gs34" cx="34%" cy="30%" r="78%"><stop offset="0%" stop-color="#eaccbf"/><stop offset="52%" stop-color="#d9a38c"/><stop offset="100%" stop-color="#a97f6d"/></radialGradient><radialGradient id="gs35" cx="34%" cy="30%" r="78%"><stop offset="0%" stop-color="#d1afa3"/><stop offset="52%" stop-color="#ac6e59"/><stop offset="100%" stop-color="#865545"/></radialGradient><radialGradient id="gs36" cx="34%" cy="30%" r="78%"><stop offset="0%" stop-color="#faf6f2"/><stop offset="52%" stop-color="#f7efe9"/><stop offset="100%" stop-color="#c0bab5"/></radialGradient><radialGradient id="gs37" cx="34%" cy="30%" r="78%"><stop offset="0%" stop-color="#faf6f2"/><stop offset="52%" stop-color="#f7efe9"/><stop offset="100%" stop-color="#c0bab5"/></radialGradient><radialGradient id="gs38" cx="34%" cy="30%" r="78%"><stop offset="0%" stop-color="#faf6f2"/><stop offset="52%" stop-color="#f7efe9"/><stop offset="100%" stop-color="#c0bab5"/></radialGradient><radialGradient id="gs39" cx="34%" cy="30%" r="78%"><stop offset="0%" stop-color="#ffffff"/><stop offset="52%" stop-color="#ffffff"/><stop offset="100%" stop-color="#c6c6c6"/></radialGradient><radialGradient id="gs40" cx="34%" cy="30%" r="78%"><stop offset="0%" stop-color="#faf6f2"/><stop offset="52%" stop-color="#f7efe9"/><stop offset="100%" stop-color="#c0bab5"/></radialGradient><radialGradient id="gs41" cx="34%" cy="30%" r="78%"><stop offset="0%" stop-color="#eaccbf"/><stop offset="52%" stop-color="#d9a38c"/><stop offset="100%" stop-color="#a97f6d"/></radialGradient><radialGradient id="gs42" cx="34%" cy="30%" r="78%"><stop offset="0%" stop-color="#f6e9e7"/><stop offset="52%" stop-color="#f0d8d4"/><stop offset="100%" stop-color="#bba8a5"/></radialGradient><radialGradient id="gs43" cx="34%" cy="30%" r="78%"><stop offset="0%" stop-color="#f6e9e7"/><stop offset="52%" stop-color="#f0d8d4"/><stop offset="100%" stop-color="#bba8a5"/></radialGradient><radialGradient id="gs44" cx="34%" cy="30%" r="78%"><stop offset="0%" stop-color="#faf6f2"/><stop offset="52%" stop-color="#f7efe9"/><stop offset="100%" stop-color="#c0bab5"/></radialGradient></defs><style>@media (prefers-reduced-motion:no-preference){.fl{animation:fl 7s ease-in-out infinite}.fl2{animation:fl 9s ease-in-out infinite reverse}.tw{animation:tw 4.5s ease-in-out infinite}}@keyframes fl{0%,100%{transform:translateY(0)}50%{transform:translateY(-9px)}}@keyframes tw{0%,100%{opacity:.35}50%{opacity:1}}</style><rect width="1200" height="900" fill="url(#wall)"/><ellipse cx="600.0" cy="558.0" rx="624.0" ry="414.0" fill="#fff" opacity=".22"/><rect y="768" width="1200" height="132" fill="#e7d6cd"/><rect x="180" y="90" width="840" height="640" rx="420" fill="#fff" opacity=".72"/><rect x="230" y="140" width="740" height="590" rx="370" fill="none" stroke="#e2c9b8" stroke-width="5"/><path d="M150,0 q120,420 20,780 l-130,0 q60,-420 -10,-780 Z" fill="#fff" opacity=".55"/><path d="M1050,0 q-120,420 -20,780 l130,0 q-60,-420 10,-780 Z" fill="#fff" opacity=".55"/><g class="fl"><g transform="translate(674.6,115.46) rotate(-9.33)"><path d="M0,50.29 l-4.93,8.38 l9.86,0 Z" fill="#d9a38c" opacity=".85"/><ellipse cx="0" cy="0" rx="49.31" ry="52.26" fill="url(#gs23)"/><ellipse cx="-16.27" cy="-17.75" rx="9.86" ry="14.79" fill="#eaccbf" opacity=".55" transform="rotate(-18 -16.27 -17.75)"/><ellipse cx="19.72" cy="14.79" rx="6.41" ry="10.85" fill="#eaccbf" opacity=".20"/></g><g transform="translate(501.71,87.14) rotate(-5.5)"><path d="M0,49.39 l-4.84,8.23 l9.68,0 Z" fill="#d9a38c" opacity=".85"/><ellipse cx="0" cy="0" rx="48.42" ry="51.33" fill="url(#gs19)"/></g><g transform="translate(647.76,122.73) rotate(1.61)"><path d="M0,46.01 l-4.51,7.67 l9.02,0 Z" fill="#f0d8d4" opacity=".85"/><ellipse cx="0" cy="0" rx="45.11" ry="47.82" fill="url(#gs25)"/><ellipse cx="-14.89" cy="-16.24" rx="9.02" ry="13.53" fill="#f6e9e7" opacity=".55" transform="rotate(-18 -14.89 -16.24)"/><ellipse cx="18.04" cy="13.53" rx="5.86" ry="9.92" fill="#f6e9e7" opacity=".20"/></g><g transform="translate(406.64,162.83) rotate(-13.43)"><path d="M0,45.91 l-4.5,7.65 l9.0,0 Z" fill="#c08a4e" opacity=".85"/><ellipse cx="0" cy="0" rx="45.01" ry="47.71" fill="url(#gs14)"/></g><g transform="translate(743.0,125.77) rotate(0.86)"><path d="M0,45.46 l-4.46,7.58 l8.91,0 Z" fill="#c08a4e" opacity=".85"/><ellipse cx="0" cy="0" rx="44.57" ry="47.24" fill="url(#gs29)"/><ellipse cx="-14.71" cy="-16.05" rx="8.91" ry="13.37" fill="#dcbe9d" opacity=".55" transform="rotate(-18 -14.71 -16.05)"/><ellipse cx="17.83" cy="13.37" rx="5.79" ry="9.81" fill="#dcbe9d" opacity=".20"/></g><g transform="translate(854.61,196.54) rotate(-1.32)"><path d="M0,43.14 l-4.23,7.19 l8.46,0 Z" fill="#f0d8d4" opacity=".85"/><ellipse cx="0" cy="0" rx="42.29" ry="44.83" fill="url(#gs33)"/></g><g transform="translate(450.53,87.76) rotate(-0.81)"><path d="M0,43.04 l-4.22,7.17 l8.44,0 Z" fill="#d9a38c" opacity=".85"/><ellipse cx="0" cy="0" rx="42.2" ry="44.73" fill="url(#gs17)"/><ellipse cx="-13.93" cy="-15.19" rx="8.44" ry="12.66" fill="#eaccbf" opacity=".55" transform="rotate(-18 -13.93 -15.19)"/><ellipse cx="16.88" cy="12.66" rx="5.49" ry="9.28" fill="#eaccbf" opacity=".20"/></g><g transform="translate(539.66,124.04) rotate(-2.91)"><path d="M0,41.83 l-4.1,6.97 l8.2,0 Z" fill="#c08a4e" opacity=".85"/><ellipse cx="0" cy="0" rx="41.01" ry="43.47" fill="url(#gs22)"/></g><g transform="translate(713.13,116.19) rotate(-18.96)"><path d="M0,40.7 l-3.99,6.78 l7.98,0 Z" fill="#f7efe9" opacity=".85"/><ellipse cx="0" cy="0" rx="39.9" ry="42.3" fill="url(#gs26)"/><ellipse cx="-13.17" cy="-14.37" rx="7.98" ry="11.97" fill="#faf6f2" opacity=".55" transform="rotate(-18 -13.17 -14.37)"/><ellipse cx="15.96" cy="11.97" rx="5.19" ry="8.78" fill="#faf6f2" opacity=".20"/></g><g transform="translate(428.47,151.98) rotate(5.45)"><path d="M0,40.66 l-3.99,6.78 l7.97,0 Z" fill="#ac6e59" opacity=".85"/><ellipse cx="0" cy="0" rx="39.86" ry="42.25" fill="url(#gs16)"/></g><g transform="translate(481.56,90.78) rotate(7.75)"><path d="M0,39.12 l-3.84,6.52 l7.67,0 Z" fill="#d9a38c" opacity=".85"/><ellipse cx="0" cy="0" rx="38.36" ry="40.66" fill="url(#gs18)"/><ellipse cx="-12.66" cy="-13.81" rx="7.67" ry="11.51" fill="#eaccbf" opacity=".55" transform="rotate(-18 -12.66 -13.81)"/><ellipse cx="15.34" cy="11.51" rx="4.99" ry="8.44" fill="#eaccbf" opacity=".20"/></g><g transform="translate(623.92,87.86) rotate(18.26)"><path d="M0,38.9 l-3.81,6.48 l7.63,0 Z" fill="#f7efe9" opacity=".85"/><ellipse cx="0" cy="0" rx="38.14" ry="40.43" fill="url(#gs24)"/></g><g transform="translate(693.6,129.98) rotate(12.72)"><path d="M0,36.85 l-3.61,6.14 l7.23,0 Z" fill="#ffffff" opacity=".85"/><ellipse cx="0" cy="0" rx="36.13" ry="38.3" fill="url(#gs28)"/><ellipse cx="-11.92" cy="-13.01" rx="7.23" ry="10.84" fill="#ffffff" opacity=".55" transform="rotate(-18 -11.92 -13.01)"/><ellipse cx="14.45" cy="10.84" rx="4.7" ry="7.95" fill="#ffffff" opacity=".20"/></g><g transform="translate(288.68,204.06) rotate(4.2)"><path d="M0,35.51 l-3.48,5.92 l6.96,0 Z" fill="#ffffff" opacity=".85"/><ellipse cx="0" cy="0" rx="34.82" ry="36.9" fill="url(#gs10)"/><ellipse cx="-11.49" cy="-12.53" rx="6.96" ry="10.44" fill="#ffffff" opacity=".55" transform="rotate(-18 -11.49 -12.53)"/><ellipse cx="13.93" cy="10.44" rx="4.53" ry="7.66" fill="#ffffff" opacity=".20"/></g><g transform="translate(800.74,105.91) rotate(-17.52)"><path d="M0,34.28 l-3.36,5.71 l6.72,0 Z" fill="#ac6e59" opacity=".85"/><ellipse cx="0" cy="0" rx="33.61" ry="35.63" fill="url(#gs31)"/><ellipse cx="-11.09" cy="-12.1" rx="6.72" ry="10.08" fill="#d1afa3" opacity=".55" transform="rotate(-18 -11.09 -12.1)"/><ellipse cx="13.44" cy="10.08" rx="4.37" ry="7.39" fill="#d1afa3" opacity=".20"/></g><g transform="translate(737.35,102.03) rotate(8.98)"><path d="M0,33.69 l-3.3,5.62 l6.61,0 Z" fill="#c08a4e" opacity=".85"/><ellipse cx="0" cy="0" rx="33.03" ry="35.02" fill="url(#gs27)"/></g><g transform="translate(888.21,200.2) rotate(16.33)"><path d="M0,32.4 l-3.18,5.4 l6.35,0 Z" fill="#d9a38c" opacity=".85"/><ellipse cx="0" cy="0" rx="31.76" ry="33.67" fill="url(#gs34)"/><ellipse cx="-10.48" cy="-11.43" rx="6.35" ry="9.53" fill="#eaccbf" opacity=".55" transform="rotate(-18 -10.48 -11.43)"/><ellipse cx="12.7" cy="9.53" rx="4.13" ry="6.99" fill="#eaccbf" opacity=".20"/></g><g transform="translate(598.73,104.56) rotate(10.94)"><path d="M0,32.28 l-3.16,5.38 l6.33,0 Z" fill="#ac6e59" opacity=".85"/><ellipse cx="0" cy="0" rx="31.65" ry="33.54" fill="url(#gs21)"/><ellipse cx="-10.44" cy="-11.39" rx="6.33" ry="9.49" fill="#d1afa3" opacity=".55" transform="rotate(-18 -10.44 -11.39)"/><ellipse cx="12.66" cy="9.49" rx="4.11" ry="6.96" fill="#d1afa3" opacity=".20"/></g><g transform="translate(918.26,214.65) rotate(15.95)"><path d="M0,31.99 l-3.14,5.33 l6.27,0 Z" fill="#f7efe9" opacity=".85"/><ellipse cx="0" cy="0" rx="31.37" ry="33.25" fill="url(#gs37)"/><ellipse cx="-10.35" cy="-11.29" rx="6.27" ry="9.41" fill="#faf6f2" opacity=".55" transform="rotate(-18 -10.35 -11.29)"/><ellipse cx="12.55" cy="9.41" rx="4.08" ry="6.9" fill="#faf6f2" opacity=".20"/></g><g transform="translate(407.65,154.31) rotate(-7.17)"><path d="M0,30.91 l-3.03,5.15 l6.06,0 Z" fill="#c08a4e" opacity=".85"/><ellipse cx="0" cy="0" rx="30.3" ry="32.12" fill="url(#gs15)"/><ellipse cx="-10.0" cy="-10.91" rx="6.06" ry="9.09" fill="#dcbe9d" opacity=".55" transform="rotate(-18 -10.0 -10.91)"/><ellipse cx="12.12" cy="9.09" rx="3.94" ry="6.67" fill="#dcbe9d" opacity=".20"/></g><g transform="translate(254.06,239.23) rotate(20.25)"><path d="M0,30.89 l-3.03,5.15 l6.06,0 Z" fill="#c08a4e" opacity=".85"/><ellipse cx="0" cy="0" rx="30.28" ry="32.1" fill="url(#gs7)"/><ellipse cx="-9.99" cy="-10.9" rx="6.06" ry="9.09" fill="#dcbe9d" opacity=".55" transform="rotate(-18 -9.99 -10.9)"/><ellipse cx="12.11" cy="9.09" rx="3.94" ry="6.66" fill="#dcbe9d" opacity=".20"/></g><g transform="translate(304.99,175.64) rotate(10.18)"><path d="M0,30.22 l-2.96,5.04 l5.93,0 Z" fill="#ffffff" opacity=".85"/><ellipse cx="0" cy="0" rx="29.63" ry="31.4" fill="url(#gs11)"/><ellipse cx="-9.78" cy="-10.67" rx="5.93" ry="8.89" fill="#ffffff" opacity=".55" transform="rotate(-18 -9.78 -10.67)"/><ellipse cx="11.85" cy="8.89" rx="3.85" ry="6.52" fill="#ffffff" opacity=".20"/></g><g transform="translate(983.75,307.15) rotate(-0.23)"><path d="M0,28.32 l-2.78,4.72 l5.55,0 Z" fill="#f7efe9" opacity=".85"/><ellipse cx="0" cy="0" rx="27.76" ry="29.43" fill="url(#gs40)"/><ellipse cx="-9.16" cy="-10.0" rx="5.55" ry="8.33" fill="#faf6f2" opacity=".55" transform="rotate(-18 -9.16 -10.0)"/><ellipse cx="11.11" cy="8.33" rx="3.61" ry="6.11" fill="#faf6f2" opacity=".20"/></g><g transform="translate(522.85,103.15) rotate(-19.54)"><path d="M0,27.56 l-2.7,4.59 l5.4,0 Z" fill="#f0d8d4" opacity=".85"/><ellipse cx="0" cy="0" rx="27.02" ry="28.64" fill="url(#gs20)"/><ellipse cx="-8.92" cy="-9.73" rx="5.4" ry="8.11" fill="#f6e9e7" opacity=".55" transform="rotate(-18 -8.92 -9.73)"/><ellipse cx="10.81" cy="8.11" rx="3.51" ry="5.94" fill="#f6e9e7" opacity=".20"/></g><g transform="translate(301.98,255.09) rotate(16.23)"><path d="M0,27.49 l-2.7,4.58 l5.39,0 Z" fill="#c08a4e" opacity=".85"/><ellipse cx="0" cy="0" rx="26.95" ry="28.57" fill="url(#gs9)"/><ellipse cx="-8.89" cy="-9.7" rx="5.39" ry="8.09" fill="#dcbe9d" opacity=".55" transform="rotate(-18 -8.89 -9.7)"/><ellipse cx="10.78" cy="8.09" rx="3.5" ry="5.93" fill="#dcbe9d" opacity=".20"/></g><g transform="translate(881.23,194.49) rotate(2.86)"><path d="M0,27.39 l-2.69,4.57 l5.37,0 Z" fill="#ac6e59" opacity=".85"/><ellipse cx="0" cy="0" rx="26.86" ry="28.47" fill="url(#gs35)"/><ellipse cx="-8.86" cy="-9.67" rx="5.37" ry="8.06" fill="#d1afa3" opacity=".55" transform="rotate(-18 -8.86 -9.67)"/><ellipse cx="10.74" cy="8.06" rx="3.49" ry="5.91" fill="#d1afa3" opacity=".20"/></g><g transform="translate(345.91,221.52) rotate(-3.64)"><path d="M0,25.74 l-2.52,4.29 l5.05,0 Z" fill="#c08a4e" opacity=".85"/><ellipse cx="0" cy="0" rx="25.23" ry="26.74" fill="url(#gs12)"/><ellipse cx="-8.33" cy="-9.08" rx="5.05" ry="7.57" fill="#dcbe9d" opacity=".55" transform="rotate(-18 -8.33 -9.08)"/><ellipse cx="10.09" cy="7.57" rx="3.28" ry="5.55" fill="#dcbe9d" opacity=".20"/></g><g transform="translate(782.11,137.5) rotate(-9.58)"><path d="M0,25.59 l-2.51,4.26 l5.02,0 Z" fill="#ac6e59" opacity=".85"/><ellipse cx="0" cy="0" rx="25.08" ry="26.59" fill="url(#gs32)"/><ellipse cx="-8.28" cy="-9.03" rx="5.02" ry="7.53" fill="#d1afa3" opacity=".55" transform="rotate(-18 -8.28 -9.03)"/><ellipse cx="10.03" cy="7.53" rx="3.26" ry="5.52" fill="#d1afa3" opacity=".20"/></g><g transform="translate(203.28,426.75) rotate(12.7)"><path d="M0,24.38 l-2.39,4.06 l4.78,0 Z" fill="#f7efe9" opacity=".85"/><ellipse cx="0" cy="0" rx="23.91" ry="25.34" fill="url(#gs4)"/><ellipse cx="-7.89" cy="-8.61" rx="4.78" ry="7.17" fill="#faf6f2" opacity=".55" transform="rotate(-18 -7.89 -8.61)"/><ellipse cx="9.56" cy="7.17" rx="3.11" ry="5.26" fill="#faf6f2" opacity=".20"/></g><g transform="translate(225.2,331.4) rotate(-6.76)"><path d="M0,24.03 l-2.36,4.01 l4.71,0 Z" fill="#d9a38c" opacity=".85"/><ellipse cx="0" cy="0" rx="23.56" ry="24.97" fill="url(#gs6)"/></g><g transform="translate(774.5,122.06) rotate(14.47)"><path d="M0,23.57 l-2.31,3.93 l4.62,0 Z" fill="#d9a38c" opacity=".85"/><ellipse cx="0" cy="0" rx="23.11" ry="24.5" fill="url(#gs30)"/></g><g transform="translate(896.88,253.1) rotate(-13.53)"><path d="M0,22.79 l-2.23,3.8 l4.47,0 Z" fill="#f7efe9" opacity=".85"/><ellipse cx="0" cy="0" rx="22.34" ry="23.68" fill="url(#gs38)"/><ellipse cx="-7.37" cy="-8.04" rx="4.47" ry="6.7" fill="#faf6f2" opacity=".55" transform="rotate(-18 -7.37 -8.04)"/><ellipse cx="8.94" cy="6.7" rx="2.9" ry="4.91" fill="#faf6f2" opacity=".20"/></g><g transform="translate(280.51,258.72) rotate(2.24)"><path d="M0,22.11 l-2.17,3.68 l4.33,0 Z" fill="#d9a38c" opacity=".85"/><ellipse cx="0" cy="0" rx="21.67" ry="22.97" fill="url(#gs8)"/><ellipse cx="-7.15" cy="-7.8" rx="4.33" ry="6.5" fill="#eaccbf" opacity=".55" transform="rotate(-18 -7.15 -7.8)"/><ellipse cx="8.67" cy="6.5" rx="2.82" ry="4.77" fill="#eaccbf" opacity=".20"/></g><g transform="translate(960.95,312.88) rotate(-20.01)"><path d="M0,21.11 l-2.07,3.52 l4.14,0 Z" fill="#d9a38c" opacity=".85"/><ellipse cx="0" cy="0" rx="20.7" ry="21.94" fill="url(#gs41)"/></g><g transform="translate(290.69,204.48) rotate(-3.45)"><path d="M0,20.99 l-2.06,3.5 l4.12,0 Z" fill="#c08a4e" opacity=".85"/><ellipse cx="0" cy="0" rx="20.58" ry="21.81" fill="url(#gs13)"/></g><g transform="translate(208.99,417.21) rotate(-16.39)"><path d="M0,20.9 l-2.05,3.48 l4.1,0 Z" fill="#f0d8d4" opacity=".85"/><ellipse cx="0" cy="0" rx="20.49" ry="21.72" fill="url(#gs3)"/><ellipse cx="-6.76" cy="-7.38" rx="4.1" ry="6.15" fill="#f6e9e7" opacity=".55" transform="rotate(-18 -6.76 -7.38)"/><ellipse cx="8.2" cy="6.15" rx="2.66" ry="4.51" fill="#f6e9e7" opacity=".20"/></g><g transform="translate(994.34,370.98) rotate(1.28)"><path d="M0,20.05 l-1.97,3.34 l3.93,0 Z" fill="#f7efe9" opacity=".85"/><ellipse cx="0" cy="0" rx="19.66" ry="20.84" fill="url(#gs44)"/><ellipse cx="-6.49" cy="-7.08" rx="3.93" ry="5.9" fill="#faf6f2" opacity=".55" transform="rotate(-18 -6.49 -7.08)"/><ellipse cx="7.86" cy="5.9" rx="2.56" ry="4.33" fill="#faf6f2" opacity=".20"/></g><g transform="translate(1007.53,410.71) rotate(1.5)"><path d="M0,19.72 l-1.93,3.29 l3.87,0 Z" fill="#f0d8d4" opacity=".85"/><ellipse cx="0" cy="0" rx="19.33" ry="20.49" fill="url(#gs43)"/><ellipse cx="-6.38" cy="-6.96" rx="3.87" ry="5.8" fill="#f6e9e7" opacity=".55" transform="rotate(-18 -6.38 -6.96)"/><ellipse cx="7.73" cy="5.8" rx="2.51" ry="4.25" fill="#f6e9e7" opacity=".20"/></g><g transform="translate(257.55,332.46) rotate(-17.98)"><path d="M0,18.85 l-1.85,3.14 l3.7,0 Z" fill="#ffffff" opacity=".85"/><ellipse cx="0" cy="0" rx="18.48" ry="19.59" fill="url(#gs5)"/><ellipse cx="-6.1" cy="-6.65" rx="3.7" ry="5.54" fill="#ffffff" opacity=".55" transform="rotate(-18 -6.1 -6.65)"/><ellipse cx="7.39" cy="5.54" rx="2.4" ry="4.07" fill="#ffffff" opacity=".20"/></g><g transform="translate(175.04,403.07) rotate(-20.37)"><path d="M0,18.84 l-1.85,3.14 l3.69,0 Z" fill="#f0d8d4" opacity=".85"/><ellipse cx="0" cy="0" rx="18.47" ry="19.58" fill="url(#gs2)"/><ellipse cx="-6.1" cy="-6.65" rx="3.69" ry="5.54" fill="#f6e9e7" opacity=".55" transform="rotate(-18 -6.1 -6.65)"/><ellipse cx="7.39" cy="5.54" rx="2.4" ry="4.06" fill="#f6e9e7" opacity=".20"/></g><g transform="translate(928.44,265.68) rotate(18.19)"><path d="M0,18.83 l-1.85,3.14 l3.69,0 Z" fill="#f7efe9" opacity=".85"/><ellipse cx="0" cy="0" rx="18.46" ry="19.56" fill="url(#gs36)"/><ellipse cx="-6.09" cy="-6.64" rx="3.69" ry="5.54" fill="#faf6f2" opacity=".55" transform="rotate(-18 -6.09 -6.64)"/><ellipse cx="7.38" cy="5.54" rx="2.4" ry="4.06" fill="#faf6f2" opacity=".20"/></g><g transform="translate(947.75,252.86) rotate(-10.07)"><path d="M0,18.7 l-1.83,3.12 l3.67,0 Z" fill="#ffffff" opacity=".85"/><ellipse cx="0" cy="0" rx="18.33" ry="19.43" fill="url(#gs39)"/><ellipse cx="-6.05" cy="-6.6" rx="3.67" ry="5.5" fill="#ffffff" opacity=".55" transform="rotate(-18 -6.05 -6.6)"/><ellipse cx="7.33" cy="5.5" rx="2.38" ry="4.03" fill="#ffffff" opacity=".20"/></g><g transform="translate(1025.83,366.47) rotate(21.57)"><path d="M0,16.01 l-1.57,2.67 l3.14,0 Z" fill="#f0d8d4" opacity=".85"/><ellipse cx="0" cy="0" rx="15.69" ry="16.63" fill="url(#gs42)"/><ellipse cx="-5.18" cy="-5.65" rx="3.14" ry="4.71" fill="#f6e9e7" opacity=".55" transform="rotate(-18 -5.18 -5.65)"/><ellipse cx="6.28" cy="4.71" rx="2.04" ry="3.45" fill="#f6e9e7" opacity=".20"/></g><g transform="translate(191.36,404.67) rotate(-16.32)"><path d="M0,12.88 l-1.26,2.15 l2.53,0 Z" fill="#f0d8d4" opacity=".85"/><ellipse cx="0" cy="0" rx="12.63" ry="13.39" fill="url(#gs1)"/></g></g><ellipse cx="235.49" cy="329.94" rx="16.5" ry="10.2" fill="#ffffff" opacity=".95" transform="rotate(57.3 235.49 329.94)"/><ellipse cx="222.06" cy="331.59" rx="16.5" ry="10.2" fill="#ffffff" opacity=".95" transform="rotate(108.72 222.06 331.59)"/><ellipse cx="212.39" cy="322.11" rx="16.5" ry="10.2" fill="#ffffff" opacity=".95" transform="rotate(160.15 212.39 322.11)"/><ellipse cx="213.78" cy="308.65" rx="16.5" ry="10.2" fill="#ffffff" opacity=".95" transform="rotate(211.58 213.78 308.65)"/><ellipse cx="225.17" cy="301.33" rx="16.5" ry="10.2" fill="#ffffff" opacity=".95" transform="rotate(263.01 225.17 301.33)"/><ellipse cx="237.99" cy="305.68" rx="16.5" ry="10.2" fill="#ffffff" opacity=".95" transform="rotate(314.44 237.99 305.68)"/><ellipse cx="242.58" cy="318.41" rx="16.5" ry="10.2" fill="#ffffff" opacity=".95" transform="rotate(365.87 242.58 318.41)"/><circle cx="227.07" cy="316.82" r="9.0" fill="#e0b487"/><ellipse cx="315.45" cy="189.74" rx="16.5" ry="10.2" fill="#ffffff" opacity=".95" transform="rotate(171.89 315.45 189.74)"/><ellipse cx="319.54" cy="176.84" rx="16.5" ry="10.2" fill="#ffffff" opacity=".95" transform="rotate(223.32 319.54 176.84)"/><ellipse cx="332.18" cy="171.99" rx="16.5" ry="10.2" fill="#ffffff" opacity=".95" transform="rotate(274.74 332.18 171.99)"/><ellipse cx="343.85" cy="178.85" rx="16.5" ry="10.2" fill="#ffffff" opacity=".95" transform="rotate(326.17 343.85 178.85)"/><ellipse cx="345.76" cy="192.25" rx="16.5" ry="10.2" fill="#ffffff" opacity=".95" transform="rotate(377.6 345.76 192.25)"/><ellipse cx="336.48" cy="202.1" rx="16.5" ry="10.2" fill="#ffffff" opacity=".95" transform="rotate(429.03 336.48 202.1)"/><ellipse cx="322.99" cy="200.98" rx="16.5" ry="10.2" fill="#ffffff" opacity=".95" transform="rotate(480.46 322.99 200.98)"/><circle cx="330.89" cy="187.54" r="9.0" fill="#e0b487"/><ellipse cx="481.09" cy="93.56" rx="16.5" ry="10.2" fill="#ffffff" opacity=".95" transform="rotate(286.48 481.09 93.56)"/><ellipse cx="491.12" cy="102.65" rx="16.5" ry="10.2" fill="#ffffff" opacity=".95" transform="rotate(337.91 491.12 102.65)"/><ellipse cx="490.26" cy="116.16" rx="16.5" ry="10.2" fill="#ffffff" opacity=".95" transform="rotate(389.34 490.26 116.16)"/><ellipse cx="479.17" cy="123.92" rx="16.5" ry="10.2" fill="#ffffff" opacity=".95" transform="rotate(440.76 479.17 123.92)"/><ellipse cx="466.19" cy="120.08" rx="16.5" ry="10.2" fill="#ffffff" opacity=".95" transform="rotate(492.19 466.19 120.08)"/><ellipse cx="461.1" cy="107.53" rx="16.5" ry="10.2" fill="#ffffff" opacity=".95" transform="rotate(543.62 461.1 107.53)"/><ellipse cx="467.73" cy="95.73" rx="16.5" ry="10.2" fill="#ffffff" opacity=".95" transform="rotate(595.05 467.73 95.73)"/><circle cx="476.66" cy="108.52" r="9.0" fill="#e0b487"/><ellipse cx="653.42" cy="102.32" rx="16.5" ry="10.2" fill="#ffffff" opacity=".95" transform="rotate(401.07 653.42 102.32)"/><ellipse cx="640.98" cy="107.66" rx="16.5" ry="10.2" fill="#ffffff" opacity=".95" transform="rotate(452.5 640.98 107.66)"/><ellipse cx="629.05" cy="101.26" rx="16.5" ry="10.2" fill="#ffffff" opacity=".95" transform="rotate(503.93 629.05 101.26)"/><ellipse cx="626.62" cy="87.94" rx="16.5" ry="10.2" fill="#ffffff" opacity=".95" transform="rotate(555.36 626.62 87.94)"/><ellipse cx="635.51" cy="77.73" rx="16.5" ry="10.2" fill="#ffffff" opacity=".95" transform="rotate(606.78 635.51 77.73)"/><ellipse cx="649.03" cy="78.32" rx="16.5" ry="10.2" fill="#ffffff" opacity=".95" transform="rotate(658.21 649.03 78.32)"/><ellipse cx="657.0" cy="89.27" rx="16.5" ry="10.2" fill="#ffffff" opacity=".95" transform="rotate(709.64 657.0 89.27)"/><circle cx="641.66" cy="92.07" r="9.0" fill="#e0b487"/><ellipse cx="785.95" cy="147.19" rx="16.5" ry="10.2" fill="#ffffff" opacity=".95" transform="rotate(515.66 785.95 147.19)"/><ellipse cx="786.27" cy="133.66" rx="16.5" ry="10.2" fill="#ffffff" opacity=".95" transform="rotate(567.09 786.27 133.66)"/><ellipse cx="797.05" cy="125.47" rx="16.5" ry="10.2" fill="#ffffff" opacity=".95" transform="rotate(618.52 797.05 125.47)"/><ellipse cx="810.18" cy="128.8" rx="16.5" ry="10.2" fill="#ffffff" opacity=".95" transform="rotate(669.95 810.18 128.8)"/><ellipse cx="815.75" cy="141.14" rx="16.5" ry="10.2" fill="#ffffff" opacity=".95" transform="rotate(721.38 815.75 141.14)"/><ellipse cx="809.59" cy="153.19" rx="16.5" ry="10.2" fill="#ffffff" opacity=".95" transform="rotate(772.8 809.59 153.19)"/><ellipse cx="796.32" cy="155.88" rx="16.5" ry="10.2" fill="#ffffff" opacity=".95" transform="rotate(824.23 796.32 155.88)"/><circle cx="800.16" cy="140.76" r="9.0" fill="#e0b487"/><ellipse cx="927.53" cy="231.4" rx="16.5" ry="10.2" fill="#ffffff" opacity=".95" transform="rotate(630.25 927.53 231.4)"/><ellipse cx="939.7" cy="237.33" rx="16.5" ry="10.2" fill="#ffffff" opacity=".95" transform="rotate(681.68 939.7 237.33)"/><ellipse cx="942.66" cy="250.54" rx="16.5" ry="10.2" fill="#ffffff" opacity=".95" transform="rotate(733.11 942.66 250.54)"/><ellipse cx="934.17" cy="261.09" rx="16.5" ry="10.2" fill="#ffffff" opacity=".95" transform="rotate(784.54 934.17 261.09)"/><ellipse cx="920.63" cy="261.03" rx="16.5" ry="10.2" fill="#ffffff" opacity=".95" transform="rotate(835.97 920.63 261.03)"/><ellipse cx="912.24" cy="250.41" rx="16.5" ry="10.2" fill="#ffffff" opacity=".95" transform="rotate(887.4 912.24 250.41)"/><ellipse cx="915.31" cy="237.22" rx="16.5" ry="10.2" fill="#ffffff" opacity=".95" transform="rotate(938.83 915.31 237.22)"/><circle cx="927.46" cy="247.0" r="9.0" fill="#e0b487"/><ellipse cx="1017.89" cy="400.79" rx="16.5" ry="10.2" fill="#ffffff" opacity=".95" transform="rotate(744.85 1017.89 400.79)"/><ellipse cx="1007.43" cy="409.39" rx="16.5" ry="10.2" fill="#ffffff" opacity=".95" transform="rotate(796.27 1007.43 409.39)"/><ellipse cx="994.19" cy="406.58" rx="16.5" ry="10.2" fill="#ffffff" opacity=".95" transform="rotate(847.7 994.19 406.58)"/><ellipse cx="988.13" cy="394.47" rx="16.5" ry="10.2" fill="#ffffff" opacity=".95" transform="rotate(899.13 988.13 394.47)"/><ellipse cx="993.82" cy="382.18" rx="16.5" ry="10.2" fill="#ffffff" opacity=".95" transform="rotate(950.56 993.82 382.18)"/><ellipse cx="1006.97" cy="378.97" rx="16.5" ry="10.2" fill="#ffffff" opacity=".95" transform="rotate(1001.99 1006.97 378.97)"/><ellipse cx="1017.68" cy="387.25" rx="16.5" ry="10.2" fill="#ffffff" opacity=".95" transform="rotate(1053.42 1017.68 387.25)"/><circle cx="1003.73" cy="394.23" r="9.0" fill="#e0b487"/><rect x="438" y="560" width="124" height="180" rx="16" fill="#f6ece6" stroke="#e0cabd" stroke-width="3"/><rect x="438" y="430" width="124" height="150" rx="62" fill="#f9f2ee" stroke="#e0cabd" stroke-width="3"/><rect x="638" y="560" width="124" height="180" rx="16" fill="#f6ece6" stroke="#e0cabd" stroke-width="3"/><rect x="638" y="430" width="124" height="150" rx="62" fill="#f9f2ee" stroke="#e0cabd" stroke-width="3"/><rect x="300" y="740" width="600" height="28" rx="8" fill="#e8d5c9"/><rect x="250" y="690" width="16" height="56" rx="8" fill="#fff"/><ellipse cx="258" cy="684" rx="6" ry="11" fill="#f3c46a" class="tw"/><rect x="390" y="660" width="16" height="86" rx="8" fill="#fff"/><ellipse cx="398" cy="654" rx="6" ry="11" fill="#f3c46a" class="tw"/><rect x="530" y="630" width="16" height="116" rx="8" fill="#fff"/><ellipse cx="538" cy="624" rx="6" ry="11" fill="#f3c46a" class="tw"/><rect x="670" y="690" width="16" height="56" rx="8" fill="#fff"/><ellipse cx="678" cy="684" rx="6" ry="11" fill="#f3c46a" class="tw"/><rect x="810" y="660" width="16" height="86" rx="8" fill="#fff"/><ellipse cx="818" cy="654" rx="6" ry="11" fill="#f3c46a" class="tw"/><rect x="950" y="630" width="16" height="116" rx="8" fill="#fff"/><ellipse cx="958" cy="624" rx="6" ry="11" fill="#f3c46a" class="tw"/></svg>